<?xml version="1.0"?>
<svg xmlns="http://www.w3.org/2000/svg"
     width="96" height="16" viewBox="0 0 96 16"
     class="fieldtext">
#include icon-colors.inc.svg

  <path
     d="M8,16c-4.4,0-8-3.6-8-8s3.6-8,8-8s8,3.6,8,8S12.4,16,8,16z M12,4H4v8h8V4z M5,9.9V6.1
	L6.9,8L5,9.9z M9.9,11H6.1L8,9.1L9.9,11z M11,6.1V10L9.7,8.7L9.1,8L11,6.1z M6.1,5H10L8,6.9L6.1,5z"
     id="placeholder" />
  <path
     d="m 36.7,4.4 v 10 h 8.8 v -10 z m 5.9,-2.5 h -8.3 v 9.7 h 1.1 V 3 h 7.2 z m 1.8,11.4 H 37.8 V 5.5 h 6.6 z m -3.9,-1.8 h 2 V 11 h -1.9 c -0.3,0 -0.5,-0.2 -0.5,-0.5 V 8.3 c 0,-0.3 0.2,-0.5 0.4,-0.5 h 1.9 V 7.3 h -1.9 c -0.6,0 -1,0.4 -1,1 v 2.2 c 0,0.6 0.4,1 1,1 z"
     id="copy" />
  <path
     d="M27.9,9.5c-0.9,0-1.7,0.5-2.1,1.2l-1.2-2.2l2.9-5.9c0.1-0.3,0-0.7-0.3-0.8c-0.3-0.1-0.7,0-0.8,0.3L24,7.2
	l-2.6-5.1c-0.2-0.2-0.5-0.3-0.8-0.2c-0.2,0.2-0.3,0.5-0.2,0.8l3,5.8l-1.1,2.2c-0.4-0.7-1.2-1.2-2-1.2c-1.3,0-2.4,1.1-2.4,2.4
	s1.1,2.4,2.4,2.4c1,0,2-0.7,2.3-1.6l1.5-3l1.6,3c0.3,0.9,1.2,1.6,2.2,1.6c1.4,0,2.4-1.1,2.4-2.4S29.2,9.5,27.9,9.5z M20.3,13.2
	c-0.7,0-1.3-0.6-1.3-1.3s0.6-1.3,1.3-1.3s1.3,0.6,1.3,1.3S21,13.2,20.3,13.2z M27.9,13.2c-0.7,0-1.3-0.6-1.3-1.3s0.6-1.3,1.3-1.3
	c0.7,0,1.3,0.6,1.3,1.3S28.6,13.2,27.9,13.2z"
     id="cut" />
  <path
     d="M67.6,7.4h8.7v1.1h-8.7V7.4z"
     id="zoomOut" />
  <path
     d="M87.4,3.6h1.1v3.8h3.8v1.1h-3.8v3.8h-1.1V8.5h-3.8V7.4h3.8V3.6z"
     id="zoomIn" />
  <path
     d="m 50.2,1.8 h 1.2 V 2.9 H 51.3 V 3 h -1.1 z m 2.5,0 H 54 v 1.1 h -1.3 z m 2.5,0 h 1.3 v 1.1 h -1.3 z m 2.6,0 H 59 V 2.9 H 57.8 Z M 50.2,11 h 1.1 v 1.2 h -1.1 z m 0,-4.5 h 1.1 v 1.1 h -1.1 z m 0,-2.3 h 1.1 v 1.1 h -1.1 z m 0,4.6 h 1.1 V 9.9 H 50.2 Z M 61.3,4.1 V 14.4 H 52.5 V 4.1 Z m -1.1,1.1 h -6.6 v 8 h 6.6 z"
     id="paste" />
</svg>
