<?xml version="1.0"?>
<svg xmlns="http://www.w3.org/2000/svg"
     width="1056" height="32" viewBox="0 0 1056 32"
     class="fieldtext">
#include icon-colors.inc.svg

  <path
     d="m 158.84331,12.4 -10.8,-0.6 -3.8,-10 -3.9,10.1 -10.8,0.6 8.3,6.9 -2.8,10.4 9.1,-5.8 9.1,5.8 -2.7,-10.5 z m -13.3,9.6 -1.2,-0.8 -1.2,0.8 -4.3,2.7 1.3,-4.9 0.4,-1.4 -1.1,-0.9 -3.9,-3.2 5.1,-0.3 1.4,-0.1 0.5,-1.3 1.7,-4.7 1.9,4.7 0.5,1.3 1.4,0.1 5.1,0.3 -3.9,3.2 -1.1,0.9 0.4,1.4 1.3,4.9 z"
     id="Bookmark-hollow" />
  <path
     d="m 190.73331,12.49001 0.11,-0.09 -10.8,-0.59999 -3.9,-10 -4,10 -10.7,0.7 8.28,6.88 -2.68,10.41999 9.1,-5.79999 9.1,5.79999 -2.7,-10.50001 8.3,-6.8 z"
     id="bookmark-filled" />
  <path
     d="m 126.04331,13.6 -13.8,-11.1 -13.8,11.1 c -0.693,0.539 -0.542,1.626 0.271,1.956 0.377,0.154 0.807,0.094 1.129,-0.156 l 2.4,-1.94 V 28.7 h 19.7 V 13.22 l 2.7,2.18 c 0.218,0.112 0.456,0.18 0.7,0.2 0.331,-0.047 0.643,-0.186 0.9,-0.4 0.393,-0.495 0.302,-1.216 -0.2,-1.6 z m -12.6,12.9 h -2.6 V 18 h 2.6 z m 6.3,0 h -4.1 V 15.7 h -7 v 10.8 h -4.2 V 11.7 l 7.7,-6.2 7.6,6.2 z"
     id="home" />
  <path
     d="m 81.92331,15.88 9.52,-9.48 c 0.693,-0.693 0.376,-1.876 -0.571,-2.129 -0.439,-0.118 -0.907,0.007 -1.229,0.329 l -9.52,9.48 -9.48,-9.48 c -0.693,-0.693 -1.876,-0.376 -2.129,0.571 -0.118,0.439 0.007,0.907 0.329,1.229 l 9.5,9.45 -9.5,9.45 c -0.499,0.496 -0.499,1.304 0,1.8 0.481,0.535 1.319,0.535 1.8,0 l 9.5,-9.45 9.5,9.45 c 0.231,0.254 0.557,0.399 0.9,0.4 0.323,-0.007 0.637,-0.112 0.9,-0.3 0.499,-0.496 0.499,-1.304 0,-1.8 z"
     id="stop" />
  <path
     d="m 51.74331,13.3 h 9.6 V 3.7 h -2.5 v 4.72 c -5.75,-7.744 -17.728,-6.359 -21.559,2.493 -3.574,8.257 2.462,17.478 11.459,17.507 3.908,0.005 7.585,-1.852 9.9,-5 0.616,-0.77 0.167,-1.918 -0.807,-2.066 -0.452,-0.069 -0.907,0.109 -1.193,0.466 -1.873,2.471 -4.8,3.916 -7.9,3.9 -7.698,-0.002 -12.507,-8.337 -8.656,-15.002 3.851,-6.666 13.473,-6.663 17.32,0.004 0.019,0.033 0.038,0.065 0.056,0.098 h -5.72 z"
     id="reload" />
  <path
     d="m 362.54331,10.7 c 1.84,-1.818 4.467,-2.595 7,-2.07 l -3.1,3.17 1.6,1.6 5.6,-5.7 -5.6,-5.6 -1.6,1.6 2.53,2.53 c -7.62,-0.695 -13.135,7.12 -9.927,14.067 0.032,0.068 0.064,0.136 0.097,0.203 0.191,0.375 0.579,0.608 1,0.6 0.165,-0.043 0.332,-0.077 0.5,-0.1 0.543,-0.284 0.764,-0.947 0.5,-1.5 -1.482,-2.928 -0.918,-6.477 1.4,-8.8 z m 12.5,12.6 c 3.078,-3.054 3.808,-7.757 1.8,-11.6 -0.339,-0.793 -1.409,-0.921 -1.926,-0.231 -0.269,0.359 -0.298,0.843 -0.074,1.231 2.696,5.244 -1.296,11.44 -7.186,11.153 -0.401,-0.02 -0.801,-0.071 -1.194,-0.153 l 3.18,-3.18 -1.6,-1.62 -5.6,5.6 5.6,5.7 1.6,-1.6 -2.5,-2.6 c 2.905,0.331 5.805,-0.66 7.9,-2.7 z"
     id="sync" />
  <path
     d="M 208.74331,15.47 V 8.9 c 0,-0.847 -0.917,-1.376 -1.65,-0.953 -0.34,0.197 -0.55,0.56 -0.55,0.953 v 7.3 c 0.022,0.465 0.335,0.865 0.78,1 l 3.12,2.8 c 0.178,0.198 0.434,0.307 0.7,0.3 0.343,-0.001 0.67,-0.146 0.9,-0.4 0.422,-0.467 0.377,-1.189 -0.1,-1.6 z m -0.7,-12.47 c -9.892,0.039 -16.032,10.771 -11.053,19.318 4.979,8.548 17.344,8.499 22.257,-0.087 1.103,-1.928 1.687,-4.109 1.696,-6.331 0.028,-7.136 -5.764,-12.928 -12.9,-12.9 z m 0,23.5 c -8.16,0 -13.26,-8.833 -9.18,-15.9 4.08,-7.067 14.28,-7.067 18.36,0 0.93,1.611 1.42,3.439 1.42,5.3 -0.038,5.838 -4.762,10.562 -10.6,10.6 z"
     id="history" />
  <path
     d="M 240.16016 2.8984375 C 239.97111 2.8950938 239.777 2.941125 239.59375 3.046875 C 239.25375 3.243875 239.04297 3.607 239.04297 4 L 239.04297 19 L 233.14258 13.099609 L 231.54297 14.699219 L 240.14258 23.300781 L 248.74414 14.699219 L 247.14258 13.099609 L 241.24414 19 L 241.24414 4 C 241.24414 3.36475 240.7273 2.9084687 240.16016 2.8984375 z M 228.56055 22.199219 C 228.3715 22.195875 228.17739 22.241906 227.99414 22.347656 C 227.65414 22.544656 227.44336 22.907781 227.44336 23.300781 L 227.44336 27.699219 L 252.34375 27.699219 L 252.34375 23.300781 C 252.33875 22.695781 251.84914 22.204219 251.24414 22.199219 C 250.63914 22.204219 250.14758 22.695781 250.14258 23.300781 L 250.14258 25.400391 L 229.64258 25.400391 L 229.64258 23.300781 C 229.64258 22.665531 229.12769 22.20925 228.56055 22.199219 z "
     id="downloads" />
  <path
     d="m 279.34331,13.7 h -0.7 V 8.2 h -5.4 c 0.082,-0.224 0.116,-0.462 0.1,-0.7 -0.022,-2.421 -1.979,-4.378 -4.4,-4.4 -2.437,-0.017 -4.417,1.963 -4.4,4.4 0,0.2 0.1,0.5 0.1,0.7 h -5.4 V 17 l 1.6,-1 v 0 c 0.371,-0.193 0.782,-0.296 1.2,-0.3 1.771,0 2.877,1.917 1.992,3.45 -0.411,0.712 -1.17,1.15 -1.992,1.15 -0.418,-0.004 -0.829,-0.107 -1.2,-0.3 v 0 l -1.6,-1 v 8.7 h 8.7 l -0.9,-1.6 c -0.205,-0.33 -0.309,-0.712 -0.3,-1.1 0,-1.771 1.917,-2.877 3.45,-1.992 0.712,0.411 1.15,1.17 1.15,1.992 0.009,0.388 -0.095,0.77 -0.3,1.1 l -0.9,1.6 h 8.5 v -5.2 h 0.7 c 2.421,-0.022 4.378,-1.979 4.4,-4.4 0.017,-2.437 -1.963,-4.417 -4.4,-4.4 z m 0,6.7 c -0.418,-0.004 -0.829,-0.107 -1.2,-0.3 l -1.6,-1 v 6.5 h -3.1 c 0.009,-0.28 -0.06,-0.557 -0.2,-0.8 -0.022,-2.421 -1.979,-4.378 -4.4,-4.4 -2.437,-0.017 -4.417,1.963 -4.4,4.4 v 0.6 h -3.3 v -3 c 0.296,0.064 0.597,0.098 0.9,0.1 2.474,-0.081 4.429,-2.125 4.4,-4.6 0.017,-2.437 -1.963,-4.417 -4.4,-4.4 -0.304,0.006 -0.606,0.05 -0.9,0.13 V 10.4 h 6.7 l -1,-1.6 c -0.193,-0.371 -0.296,-0.782 -0.3,-1.2 0,-1.771 1.917,-2.877 3.45,-1.992 0.712,0.411 1.15,1.17 1.15,1.992 -0.004,0.418 -0.107,0.829 -0.3,1.2 l -1,1.6 h 6.7 v 6.7 l 1.6,-1 c 0.371,-0.193 0.782,-0.296 1.2,-0.3 1.771,0 2.877,1.917 1.992,3.45 -0.411,0.712 -1.17,1.15 -1.992,1.15 z"
     id="addOns" />
  <path
     d="m 339.14331,3.42 v 0 h -13.8 v 25 h 21.5 V 11.1 Z m 4.71,7.68 h -4.71 V 6.39 Z m 0.79,15.1 h -17.2 V 5.6 h 9.5 v 7.6 h 7.7 z"
     id="save" />
  <path
     d="m 438.34331,20.1 c -1.123,10e-4 -2.2,0.442 -3,1.23 l -6.13,-4 c 0.317,-0.841 0.342,-1.764 0.07,-2.62 l 6.25,-4.08 c 2.506,2.163 6.413,0.803 7.034,-2.449 0.62,-3.251 -2.512,-5.955 -5.638,-4.867 -1.737,0.605 -2.897,2.247 -2.886,4.086 0.007,0.442 0.081,0.88 0.22,1.3 l -6.2,4 c -2.426,-2.263 -6.392,-1.052 -7.139,2.181 -0.748,3.233 2.285,6.062 5.458,5.092 0.545,-0.166 1.052,-0.439 1.491,-0.803 l 6.31,4.12 c -0.094,0.362 -0.141,0.736 -0.14,1.11 0,3.31 3.583,5.379 6.45,3.724 2.867,-1.655 2.867,-5.793 0,-7.448 -0.654,-0.377 -1.395,-0.576 -2.15,-0.576 z m 0,-14.8 c 1.158,0.005 2.095,0.942 2.1,2.1 0.029,1.172 -0.928,2.129 -2.1,2.1 -1.617,0 -2.627,-1.75 -1.819,-3.15 0.376,-0.65 1.069,-1.05 1.819,-1.05 z m -13.2,12.7 c -1.617,0 -2.627,-1.75 -1.819,-3.15 0.809,-1.4 2.829,-1.4 3.638,0 0.184,0.319 0.281,0.681 0.281,1.05 0.029,1.172 -0.928,2.129 -2.1,2.1 z m 13.2,8.5 c -1.172,0.029 -2.129,-0.928 -2.1,-2.1 0,-1.617 1.75,-2.627 3.15,-1.819 0.65,0.375 1.05,1.069 1.05,1.819 0.029,1.172 -0.928,2.129 -2.1,2.1 z"
     id="share" />
  <path
     d="m 455.74331,6.4 -6.5,17 h 2.4 l 1.9,-5.1 h 6.9 l 2,5.1 h 2.8 l -7.1,-17 z m 21.7,16.8 c -0.255,-0.466 -0.425,-0.974 -0.5,-1.5 -0.111,-1.23 -0.144,-2.466 -0.1,-3.7 v -2.8 c 0.036,-0.635 0.003,-1.272 -0.1,-1.9 -0.076,-0.511 -0.283,-0.993 -0.6,-1.4 -0.366,-0.433 -0.854,-0.747 -1.4,-0.9 -0.895,-0.124 -1.797,-0.191 -2.7,-0.2 -0.95,-0.036 -1.898,0.099 -2.8,0.4 -0.697,0.23 -1.319,0.645 -1.8,1.2 -0.454,0.623 -0.762,1.341 -0.9,2.1 h 0.05 c 0,0.07 0,0.12 -0.05,0.19 l 2,0.3 c 0.098,-0.703 0.455,-1.345 1,-1.8 0.674,-0.364 1.435,-0.537 2.2,-0.5 0.861,-0.092 1.723,0.16 2.4,0.7 0.435,0.494 0.651,1.144 0.6,1.8 v 0.3 c -1.204,0.367 -2.445,0.602 -3.7,0.7 -0.8,0.1 -1.4,0.2 -1.9,0.3 -0.534,0.152 -1.04,0.389 -1.5,0.7 -0.44,0.326 -0.814,0.733 -1.1,1.2 -0.284,0.484 -0.423,1.039 -0.4,1.6 0,0 0,0 0,0.06 0,0.06 0,0.09 0,0.14 0.002,0.95 0.401,1.856 1.1,2.5 0.853,0.743 1.973,1.104 3.1,1 0.786,0.022 1.568,-0.114 2.3,-0.4 0.805,-0.343 1.548,-0.816 2.2,-1.4 0.1,0.5 0.2,1 0.3,1.7 h 2.2 l -0.15,-0.4 z m -23.3,-6.8 1.9,-5 c 0.405,-1.034 0.706,-2.106 0.9,-3.2 0.3,0.9 0.7,2.1 1.2,3.5 l 1.8,4.7 z m 20.4,1.7 c 0.029,0.712 -0.073,1.424 -0.3,2.1 -0.292,0.574 -0.753,1.045 -1.32,1.35 -0.654,0.294 -1.363,0.448 -2.08,0.45 -0.656,0.051 -1.305,-0.165 -1.8,-0.6 -0.395,-0.357 -0.614,-0.868 -0.6,-1.4 -0.008,-0.357 0.097,-0.707 0.3,-1 0.137,-0.191 0.306,-0.357 0.5,-0.49 l 0.2,-0.11 c 0.583,-0.2 1.187,-0.334 1.8,-0.4 1.125,-0.136 2.231,-0.395 3.3,-0.77 z m -6.8,-9.5 h 1.8 c -0.091,-0.283 -0.014,-0.593 0.2,-0.8 0.117,-0.206 0.344,-0.323 0.58,-0.3 0.216,0.079 0.424,0.179 0.62,0.3 0.522,0.29 1.09,0.486 1.68,0.58 0.233,0.073 0.476,0.113 0.72,0.12 0.603,-0.02 1.176,-0.271 1.6,-0.7 0.509,-0.536 0.764,-1.264 0.7,-2 h -1.7 c -0.1,0.4 -0.1,0.7 -0.3,0.8 -0.15,0.122 -0.337,0.19 -0.53,0.19 -0.346,-0.048 -0.682,-0.146 -1,-0.29 -0.62,-0.331 -1.3,-0.535 -2,-0.6 h -0.2 c -0.642,-0.027 -1.263,0.229 -1.7,0.7 -0.452,0.53 -0.7,1.204 -0.7,1.9 h 0.2 z"
     id="encoding" />
  <path
     d="m 481.04331,4 v 23.6 h 29.6 V 4 Z m 27.4,21.4 h -25.3 V 13.2 h 25.3 z m 0.1,-14.4 h -25.4 V 6.1 h 25.4 z m -21.3,-3.4 h -1.9 v 1.9 h 1.9 z m 2.8,0 h -1.9 v 1.9 h 1.9 z m 2.9,0 h -1.9 v 1.9 h 1.9 z"
     id="new-window" />
  <path
     d="m 532.24331,12.7 h -3.1 V 9.6 c 0,-0.847 -0.917,-1.376 -1.65,-0.953 -0.34,0.197 -0.55,0.56 -0.55,0.953 v 3.1 h -3.1 c -0.847,0 -1.376,0.917 -0.953,1.65 0.197,0.34 0.56,0.55 0.953,0.55 h 3.1 v 3 c 0.005,0.605 0.495,1.095 1.1,1.1 0.571,0.002 1.048,-0.432 1.1,-1 v -3.1 h 3.1 c 0.847,0 1.376,-0.917 0.953,-1.65 -0.197,-0.34 -0.56,-0.55 -0.953,-0.55 z m 8.3,6.2 c -0.78,0.017 -1.417,-0.62 -1.4,-1.4 V 7.6 c 0.006,-1.991 -1.609,-3.606 -3.6,-3.6 h -14.8 c -1.99,-0.006 -3.606,1.609 -3.6,3.6 v 9.9 c 0.017,0.78 -0.62,1.417 -1.4,1.4 h -3.1 v 8.7 h 31 v -8.7 z m 0.8,6.4 h -26.6 v -4.2 h 0.9 c 1.991,0.006 3.606,-1.609 3.6,-3.6 V 7.6 c -0.017,-0.78 0.62,-1.417 1.4,-1.4 h 14.8 c 0.78,-0.017 1.417,0.62 1.4,1.4 v 9.9 c -0.011,1.993 1.607,3.611 3.6,3.6 h 0.9 z"
     id="new-tab" />
  <path
     d="m 1019.9433,17.9 c -0.497,0 -0.9,-0.403 -0.9,-0.9 V 7.1 c -0.011,-1.708 -1.392,-3.089 -3.1,-3.1 h -15.8 c -1.70699,0.011 -3.08899,1.392 -3.09999,3.1 V 17 c 0,0.497 -0.403,0.9 -0.9,0.9 h -3.6 v 9.7 h 30.99999 v -9.7 z m 1.3,7.5 h -26.59999 v -5.3 h 1.4 c 1.708,-0.011 3.089,-1.392 3.1,-3.1 V 7.1 c 0,-0.497 0.403,-0.9 0.89999,-0.9 h 15.8 c 0.497,0 0.9,0.403 0.9,0.9 v 10 c 0.011,1.708 1.392,3.089 3.1,3.1 h 1.4 z"
     id="tabs" />
  <path
     d="m 589.94331,27.6 h 13.8 V 15.9 h -13.8 z m 5.3,-23.5 h -15.2 v 9.8 h 15.2 z m -3.2,14 h 9.5 v 7.4 h -9.5 z m 5.5,-14 v 9.8 h 6.2 V 4.1 Z m -4.4,7.6 h -10.9 V 6.2 h 10.9 z m 8.4,0 h -1.9 V 6.2 h 1.9 z m -21.5,15.9 h 7.5 V 15.9 h -7.5 z m 2.2,-9.5 h 3.2 v 7.4 h -3.2 z"
     id="tabGroups" />
  <path
     d="m 626.74331,3.7 c -7.228,-0.013 -11.76,7.804 -8.157,14.071 0.215,0.372 0.454,0.729 0.717,1.069 l -7.26,7.26 c -0.499,0.496 -0.499,1.304 0,1.8 0.481,0.535 1.319,0.535 1.8,0 l 7.28,-7.28 c 5.789,4.342 14.107,0.789 14.973,-6.396 0.675,-5.604 -3.708,-10.536 -9.353,-10.524 z m 0,16.5 c -5.466,0 -8.882,-5.917 -6.149,-10.65 2.733,-4.733 9.565,-4.733 12.298,0 0.623,1.079 0.951,2.304 0.951,3.55 -0.016,3.914 -3.186,7.084 -7.1,7.1 z"
     id="search" />
  <path
     d="m 685.14331,16.8 -7.3,7.3 v -5.3 h -2.2 v 9.4 h 9.4 v -2.3 h -5.4 l 7.3,-7.3 c 0.693,-0.693 0.376,-1.876 -0.571,-2.129 -0.439,-0.118 -0.907,0.007 -1.229,0.329 z m 6.2,-13.7 v 2.2 h 5.3 l -7.2,7.2 c -0.499,0.496 -0.499,1.304 0,1.8 0.481,0.535 1.319,0.535 1.8,0 l 7.2,-7.2 v 5.3 h 2.3 V 3.1 Z"
     id="fullscreen" />
  <path
     d="m 733.14331,7.6 -0.6,-1.6 -4.9,4.9 c -0.686,0.7 -1.814,0.7 -2.5,0 -0.306,-0.326 -0.484,-0.753 -0.5,-1.2 0.016,-0.447 0.194,-0.874 0.5,-1.2 l 4.9,-4.9 -1.6,-0.6 c -0.934,-0.32 -1.913,-0.488 -2.9,-0.5 -4.589,-0.011 -8.311,3.711 -8.3,8.3 -0.005,0.744 0.096,1.485 0.3,2.2 l -9.3,9.2 c -2.232,2.232 -1.211,6.044 1.839,6.861 1.415,0.38 2.925,-0.025 3.961,-1.061 l 9.2,-9.3 c 5.284,1.462 10.507,-2.517 10.5,-8 0.004,-1.063 -0.2,-2.116 -0.6,-3.1 z m -1.7,3.3 c 0,3.314 -2.686,6 -6,6 -0.72,0.013 -1.435,-0.123 -2.1,-0.4 l -0.7,-0.3 -10.2,10.2 c -0.725,0.701 -1.875,0.701 -2.6,0 -0.667,-0.738 -0.667,-1.862 0,-2.6 l 10.3,-10.2 -0.3,-0.7 c -0.277,-0.665 -0.413,-1.38 -0.4,-2.1 0,-3.314 2.686,-6 6,-6 0.11,-0.013 0.22,0.023 0.3,0.1 l -2.2,2.2 c -0.775,0.724 -1.21,1.74 -1.2,2.8 0.015,1.055 0.446,2.061 1.2,2.8 0.724,0.775 1.74,1.21 2.8,1.2 1.055,-0.015 2.061,-0.446 2.8,-1.2 l 2.3,-2.3 z"
     id="developer" />
  <path
     d="M 748.54297 2.5 L 747.84375 2.6992188 C 747.05975 2.9902187 746.29097 3.3242187 745.54297 3.6992188 L 744.84375 4 L 744.94336 5.0996094 C 745.13636 7.4396094 743.18375 9.3922188 740.84375 9.1992188 L 740.14258 9.0996094 L 739.84375 9.8007812 C 739.40975 10.519781 739.07275 11.291609 738.84375 12.099609 L 738.64258 12.800781 L 739.24414 13.300781 C 741.11414 14.781781 741.11414 17.618609 739.24414 19.099609 L 738.64258 19.599609 L 738.84375 20.300781 C 739.13475 21.084781 739.46875 21.851609 739.84375 22.599609 L 740.14258 23.300781 L 740.84375 23.199219 C 743.18375 23.006219 745.13636 24.960781 744.94336 27.300781 L 744.84375 28 L 745.54297 28.300781 C 746.26197 28.734781 747.03575 29.071781 747.84375 29.300781 L 748.54297 29.5 L 749.04297 28.900391 C 750.52397 27.030391 753.36275 27.030391 754.84375 28.900391 L 755.34375 29.5 L 756.14258 29 C 756.92658 28.709 757.69536 28.375 758.44336 28 L 759.14258 27.699219 L 759.04297 27 C 758.84997 24.66 760.80258 22.707391 763.14258 22.900391 L 763.84375 23 L 764.14258 22.300781 C 764.57658 21.581781 764.91358 20.808 765.14258 20 L 765.34375 19.300781 L 764.74414 18.800781 C 763.85914 18.098781 763.34375 17.030391 763.34375 15.900391 C 763.34375 14.770391 763.85914 13.702 764.74414 13 L 765.34375 12.5 L 765.14258 11.800781 C 764.85158 11.016781 764.51758 10.248 764.14258 9.5 L 763.84375 8.8007812 L 763.14258 8.9003906 C 760.80258 9.0933906 758.84997 7.1407813 759.04297 4.8007812 L 759.04297 4 L 758.34375 3.6992188 C 757.62475 3.2652187 756.85097 2.9282187 756.04297 2.6992188 L 755.34375 2.5 L 754.84375 3.0996094 C 753.36275 4.9696094 750.52397 4.9696094 749.04297 3.0996094 L 748.54297 2.5 z M 747.83398 5.0996094 C 748.67598 5.8646094 749.71498 6.3770781 750.83398 6.5800781 C 751.19298 6.6490781 751.55783 6.6854531 751.92383 6.6894531 C 752.29983 6.6904531 752.67397 6.6578437 753.04297 6.5898438 C 754.16197 6.3868437 755.20097 5.874375 756.04297 5.109375 C 756.24297 5.209375 756.53242 5.3101562 756.73242 5.4101562 C 756.91942 8.5331562 759.4102 11.023938 762.5332 11.210938 C 762.6332 11.410937 762.73398 11.710156 762.83398 11.910156 C 760.69898 14.226156 760.69898 17.793375 762.83398 20.109375 L 762.84375 20.099609 C 762.74375 20.299609 762.64297 20.600781 762.54297 20.800781 C 759.41997 20.987781 756.93114 23.476609 756.74414 26.599609 C 756.54414 26.699609 756.24297 26.800391 756.04297 26.900391 C 753.72697 24.765391 750.16075 24.765391 747.84375 26.900391 C 747.64375 26.800391 747.34258 26.699609 747.14258 26.599609 C 747.06858 25.086609 746.42675 23.657609 745.34375 22.599609 C 744.27675 21.529609 742.85275 20.889781 741.34375 20.800781 C 741.24375 20.600781 741.14297 20.299609 741.04297 20.099609 C 743.17797 17.783609 743.17797 14.216391 741.04297 11.900391 C 741.14297 11.700391 741.24375 11.399219 741.34375 11.199219 C 744.46675 11.012219 746.95558 8.5233906 747.14258 5.4003906 C 747.34258 5.3003906 747.63398 5.1996094 747.83398 5.0996094 z M 751.94336 10.599609 C 747.86336 10.599609 745.31352 15.017781 747.35352 18.550781 C 749.39352 22.083781 754.4932 22.083781 756.5332 18.550781 C 756.9982 17.744781 757.24414 16.830391 757.24414 15.900391 C 757.22214 12.982391 754.86136 10.621609 751.94336 10.599609 z M 751.94336 13 C 752.95361 13 753.96352 13.5 754.54102 14.5 C 754.80402 14.956 754.94336 15.473 754.94336 16 C 754.97236 17.669 753.61236 19.029 751.94336 19 C 749.63436 19 748.1907 16.5 749.3457 14.5 C 749.9232 13.5 750.93311 13 751.94336 13 z "
     id="settings" />
  <path
     d="m 768.44331,4 v 23.7 h 30.2 V 4 Z m 27.9,2.3 v 2 l -12.8,9 -12.9,-9.12 V 6.3 Z m -25.7,19.1 V 11 l 12.9,9 12.8,-8.94 V 25.4 Z"
     id="mail" />
  <path
     d="m 822.14331,14.6 c -0.388,-0.009 -0.77,0.095 -1.1,0.3 v -3.8 h -3.7 c 0.205,-0.33 0.309,-0.712 0.3,-1.1 0,-1.694 -1.833,-2.752 -3.3,-1.905 -0.681,0.393 -1.1,1.119 -1.1,1.905 -0.009,0.388 0.095,0.77 0.3,1.1 h -3.7 v 3.8 c 0.33,-0.205 0.712,-0.309 1.1,-0.3 1.694,0 2.752,1.833 1.905,3.3 -0.393,0.681 -1.119,1.1 -1.905,1.1 -0.388,0.009 -0.77,-0.095 -1.1,-0.3 v 3.6 h 3.7 c -0.19,-0.299 -0.294,-0.645 -0.3,-1 0,-1.694 1.833,-2.752 3.3,-1.905 0.681,0.393 1.1,1.119 1.1,1.905 0.008,0.357 -0.097,0.707 -0.3,1 h 3.6 v -3.6 c 0.33,0.205 0.712,0.309 1.1,0.3 1.211,-0.011 2.189,-0.99 2.2,-2.2 0.07,-1.203 -0.895,-2.214 -2.1,-2.2 z m -6.1,-11.4 c -9.853,0 -16.012,10.667 -11.085,19.2 4.927,8.533 17.243,8.533 22.17,0 1.124,-1.946 1.715,-4.153 1.715,-6.4 0.022,-7.078 -5.722,-12.822 -12.8,-12.8 z m 0,23.4 c -8.16,0 -13.26,-8.833 -9.18,-15.9 4.08,-7.067 14.28,-7.067 18.36,0 0.93,1.611 1.42,3.439 1.42,5.3 0.033,5.868 -4.732,10.634 -10.6,10.6 z"
     id="addon-generic" />
  <path
     d="m 833.14331,4 v 23.6 h 29.7 V 4 Z m 19.7,21.5 h -17.5 V 13.2 h 17.5 z m 7.8,-14.4 h -25.3 V 6.2 h 25.3 z m 0,14.4 h -5.6 V 13.2 h 5.6 z m -23.2,-15.9 h 1.9 V 7.7 h -1.9 z m 2.9,0 h 1.9 V 7.7 h -1.9 z m 2.8,0 h 1.9 V 7.7 h -1.9 z"
     id="sidebars" />
  <path
     d="M 879.84331,9.2 V 6.1 l -4.4,4.4 4.4,4.4 v -3.53 c 3.533,-0.039 5.784,3.761 4.051,6.84 -1.492,2.652 -5.103,3.145 -7.251,0.99 -1.007,-0.991 -1.489,-2.399 -1.3,-3.8 0.115,-0.808 -0.687,-1.438 -1.445,-1.134 -0.352,0.141 -0.601,0.459 -0.655,0.834 -0.302,2.063 0.405,4.146 1.9,5.6 1.279,1.266 3.001,1.984 4.8,2 1.812,0.049 3.559,-0.679 4.8,-2 3.657,-3.691 1.947,-9.957 -3.078,-11.279 -0.595,-0.156 -1.207,-0.231 -1.822,-0.221 z m 0.1,-6.2 c -10.007,0 -16.262,10.833 -11.258,19.5 5.003,8.667 17.513,8.667 22.516,0 1.141,-1.976 1.742,-4.218 1.742,-6.5 0,-7.18 -5.82,-13 -13,-13 z m 0,23.9 c -8.391,0 -13.635,-9.083 -9.44,-16.35 4.196,-7.267 14.684,-7.267 18.88,0 0.956,1.657 1.46,3.537 1.46,5.45 -0.016,6.013 -4.887,10.884 -10.9,10.9 z"
     id="forget" />
  <path
     d="m 923.44331,29 -1.3,-13.4 -4.29,-3.6 c -1.74,-8.21 -5,-9.76 -5.51,-10 l -0.4,-0.2 -0.4,0.2 c -0.51,0.22 -3.82,1.79 -5.55,10.18 l -4.05,3.42 -1.3,13.4 4.4,-2.88 c 0,0.18 0,0.37 0.08,0.58 l 0.1,0.9 h 13.5 v -0.9 l 0.08,-0.65 z m -3.3,-12.3 0.7,8.1 -1.91,-1.24 c -0.006,-2.785 -0.183,-5.567 -0.53,-8.33 z m -16.2,0 1.52,-1.28 c -0.337,2.744 -0.507,5.506 -0.51,8.27 l -1.71,1.11 z m 12.9,8.7 h -9.6 v -1.2 c 0,-14.7 3.6,-19 4.8,-20 1.2,1 4.8,5.3 4.8,20 z"
     id="app" />
  <path
     d="m 953.04331,3.6 c -0.4,-0.533 -1.2,-0.533 -1.6,0 -0.533,0.4 -0.533,1.2 0,1.6 2.513,2.314 3.93,5.584 3.9,9 -0.044,9.592 -10.455,15.539 -18.739,10.705 -0.737,-0.43 -1.427,-0.934 -2.061,-1.505 -0.654,-0.577 -1.688,-0.23 -1.861,0.625 -0.08,0.397 0.057,0.807 0.361,1.075 2.723,2.437 6.246,3.789 9.9,3.8 8.093,0.033 14.678,-6.507 14.7,-14.6 0.037,-4.054 -1.632,-7.937 -4.6,-10.7 z m -10.1,2.7 c 6.158,0 10.007,6.667 6.928,12 -3.079,5.333 -10.777,5.333 -13.856,0 -0.702,-1.216 -1.072,-2.596 -1.072,-4 -0.014,-0.818 0.122,-1.631 0.4,-2.4 l -1.7,-1.7 c -0.1,0.2 -0.1,0.3 -0.2,0.5 -0.425,1.155 -0.661,2.37 -0.7,3.6 0,7.929 8.584,12.884 15.45,8.919 6.867,-3.964 6.866,-13.876 0,-17.84 -1.595,-0.921 -3.408,-1.397 -5.25,-1.379 -1.371,0.015 -2.728,0.286 -4,0.8 -0.1,0 -0.2,0.1 -0.3,0.2 l 1.7,1.7 c 0.836,-0.286 1.717,-0.422 2.6,-0.4 z m 0.3,6 -9.8,-9.8 -2.4,2.4 9.8,9.8 z m 1.1,1.1 h -0.1 l -2.3,2.4 4.4,2.1 z"
     id="webIDE" />
  <path
     d="m 303.14331,7.8 c -0.232,-0.015 -0.449,-0.123 -0.6,-0.3 l -2.6,-2.6 c -0.585,-0.58 -1.376,-0.904 -2.2,-0.9 h -7.9 v 23.7 h 28.4 V 7.8 Z m 12.8,17.6 h -23.9 V 14.7 h 23.9 z m 0.1,-12.7 h -24 V 6.3 h 5.7 c 0.232,0.015 0.449,0.123 0.6,0.3 l 2.6,2.6 c 0.585,0.58 1.376,0.904 2.2,0.9 h 12.9 z"
     id="open" />
  <path
     d="m 387.94331,3.8 v 2.5 c 11.814,0.011 21.389,9.586 21.4,21.4 h 2.5 c -0.055,-13.177 -10.723,-23.845 -23.9,-23.9 z m -0.1,8.2 v 2.4 c 7.348,-0.006 13.306,5.952 13.3,13.3 h 2.5 c -0.028,-8.699 -7.101,-15.728 -15.8,-15.7 z m 3.2,8.8 c -2.046,-0.006 -3.706,1.654 -3.7,3.7 0,2.848 3.083,4.628 5.55,3.204 1.145,-0.661 1.85,-1.882 1.85,-3.204 0.006,-2.046 -1.654,-3.706 -3.7,-3.7 z m 0,4.9 c -0.924,0 -1.501,-1 -1.039,-1.8 0.214,-0.371 0.61,-0.6 1.039,-0.6 0.658,0.011 1.189,0.542 1.2,1.2 0.024,0.672 -0.528,1.224 -1.2,1.2 z"
     id="feed" />
  <path
     d="m 574.14331,7 c -0.543,-1.105 -1.669,-1.804 -2.9,-1.8 h -12.3 l -12.2,17.4 c -0.662,1.018 -0.738,2.311 -0.2,3.4 0.543,1.105 1.669,1.804 2.9,1.8 h 12.3 l 12.2,-17.4 c 0.712,-1.002 0.79,-2.322 0.2,-3.4 z m -13.6,18.5 h -11.2 c -0.387,-0.02 -0.732,-0.25 -0.9,-0.6 -0.11,-0.366 -0.074,-0.76 0.1,-1.1 l 3.25,-4.6 h 13.25 z m 11.6,-16.4 -5.52,7.8 h -13.2 l 6.72,-9.5 h 11.2 c 0.387,0.02 0.732,0.25 0.9,0.6 0.11,0.366 0.074,0.76 -0.1,1.1 z"
     id="privateBrowsing" />
  <path
     d="M 1028.9434 3.6992188 L 1028.9434 27.599609 L 1051.1426 27.599609 L 1051.1426 3.6992188 L 1028.9434 3.6992188 z M 1030.9434 5.6992188 L 1049.1426 5.6992188 L 1049.1426 14.699219 L 1030.9434 14.699219 L 1030.9434 5.6992188 z M 1035.8438 8.1992188 L 1035.8438 10.199219 L 1043.8438 10.199219 L 1043.8438 8.1992188 L 1035.8438 8.1992188 z M 1030.9434 16.699219 L 1049.1426 16.699219 L 1049.1426 25.599609 L 1030.9434 25.599609 L 1030.9434 16.699219 z M 1035.8438 18.599609 L 1035.8438 20.599609 L 1043.8438 20.599609 L 1043.8438 18.599609 L 1035.8438 18.599609 z "
     id="containers" />
  <path
     d="m 16.04331,0 c 8.837,0 16,7.163 16,16 0,2.809 -0.739,5.568 -2.144,8 -6.158,10.667 -21.5540001,10.667 -27.7120001,0 -6.159,-10.667 1.539,-24 13.8560001,-24 z m 8,24 V 8 H 8.0433099 v 16 z m -10.1,-8 -3.9,3.9 v -7.8 z m 2.1,2.1 3.9,3.9 h -7.8 z m 0,-4.2 -3.9,-3.9 h 7.8 z m 2.1,2.1 3.9,-3.9 v 7.8 z"
     id="placeholder" />
  <path
     d="m 645.73005,3.0760534 v 8.9003906 h -1.80078 c -1.99,-0.006 -3.60561,1.60861 -3.59961,3.59961 v 4.59961 c -0.006,1.991 1.60961,3.60561 3.59961,3.59961 h 1.31055 l -1.31055,4.70117 h 24.30078 l -1.31055,-4.70117 h 1.31055 c 1.991,0.006 3.60561,-1.60861 3.59961,-3.59961 v -4.59961 c 0.006,-1.991 -1.60861,-3.60561 -3.59961,-3.59961 h -1.80078 V 3.0760534 Z m 2.19922,2.1992199 h 16.30078 v 6.7011707 h -16.30078 z m -4,8.9003907 h 24.30078 c 0.78,-0.017 1.41739,0.62039 1.40039,1.40039 v 4.59961 c 0.017,0.78 -0.62039,1.41739 -1.40039,1.40039 h -24.30078 c -0.78,0.017 -1.41739,-0.62039 -1.40039,-1.40039 v -4.59961 c -0.017,-0.78 0.62039,-1.41739 1.40039,-1.40039 z m 1.59961,1.90039 c -0.385,0 -0.62364,0.417 -0.43164,0.75 0.089,0.155 0.25264,0.25 0.43164,0.25 h 3.90039 c 0.385,0 0.62559,-0.417 0.43359,-0.75 -0.089,-0.155 -0.25459,-0.25 -0.43359,-0.25 z m 1.87109,7.69922 h 17.35938 l 0.66992,2.5 h -18.69922 z"
     id="print" />
  <path
     d="m 976.05967,21.429549 8.20001,-8 c 0.61599,-0.616 0.33399,-1.667 -0.507,-1.893 -0.391,-0.104 -0.807,0.007 -1.093,0.293 l -6.5,6.5 -6.5,-6.5 c -0.616,-0.616 -1.667,-0.334 -1.893,0.507 -0.104,0.391 0.007,0.807 0.293,1.093 z m 12.9,-17.1999999 h -25.8 c -1.105,0 -2,0.895 -2,2 v 7.9999999 c 0,11.47 12.41701,18.639 22.35001,12.904 4.61,-2.662 7.45,-7.581 7.45,-12.904 V 6.2295491 c 0,-1.105 -0.895,-2 -2.00001,-2 z m -0.3,9.9999999 c 0,9.699 -10.5,15.762 -18.89999,10.912 -3.89801,-2.251 -6.3,-6.41 -6.3,-10.912 V 6.5295491 h 25.2 z"
     id="pocket" />
</svg>
