<?xml version="1.0" encoding="UTF-8" standalone="no"?>
<svg width="108px" height="72px" viewBox="0 0 108 72" version="1.1" xmlns="http://www.w3.org/2000/svg" xmlns:xlink="http://www.w3.org/1999/xlink">
    <!-- Generator: Sketch 3.8.2 (29753) - http://www.bohemiancoding.com/sketch -->
    <title>eraser</title>
    <desc>Created with Sketch.</desc>
    <defs></defs>
    <g id="icons-and-final" stroke="none" stroke-width="1" fill="none" fill-rule="evenodd">
        <g id="new-private-window" transform="translate(-810.000000, -494.000000)" fill="#7A8797">
            <path d="M824.949858,565.960617 L817.19933,565.960617 C815.774257,565.960617 814.470945,565.57565 813.289394,564.80808 C812.107843,564.039919 811.217296,563.019117 810.617556,561.745478 C810.054856,560.470263 809.876549,559.130855 810.083227,557.725086 C810.289511,556.319515 810.861471,555.092347 811.79891,554.04319 L862.200136,496.473239 C863.625209,494.823888 865.42502,494 867.600162,494 L910.800566,494 C912.225441,494 913.529344,494.384376 914.710698,495.15234 C915.891855,495.919911 916.783191,496.941106 917.383325,498.215336 C917.944842,499.48996 918.124331,500.829172 917.91588,502.23494 C917.710187,503.640512 917.137833,504.867482 916.201971,505.917034 L869.756693,558.968732 L917.726401,558.968732 L917.726401,566 L824.949858,566 L824.949858,565.960617 Z M817.19933,558.764201 L840.936506,532.342137 L884.137895,532.342137 L860.400916,558.764201 L817.19933,558.764201 Z" id="eraser"></path>
        </g>
    </g>
</svg>