<svg xmlns="http://www.w3.org/2000/svg" width="16px" height="16px" viewBox="0 0 16 16">
<path fill="#7A8798" d="M14.5,13.671h-0.641c-0.37,0-0.671-0.3-0.671-0.671s0.301-0.671,0.671-0.671H14.5c0.37,0,0.671,0.3,0.671,0.671
	S14.87,13.671,14.5,13.671z"/>
<path fill="#7A8798" d="M13.779,4.084c-0.301-0.571-0.888-0.926-1.533-0.926H6.608l-5.552,7.879c-0.366,0.531-0.406,1.216-0.106,1.787
	s0.888,0.926,1.533,0.926h5.279h0.358h3.513c0.414,0,0.75-0.336,0.75-0.75s-0.336-0.75-0.75-0.75H9.178l4.495-6.379
	C14.038,5.34,14.079,4.655,13.779,4.084z M2.278,12.126c-0.024-0.046-0.055-0.139,0.009-0.231l3.474-4.93h5.306L7.344,12.25h-4.86
	C2.362,12.25,2.303,12.172,2.278,12.126z"/>
</svg>
