<?xml version="1.0" encoding="utf-8"?>
<svg width="16px" height="16px" viewBox="0 0 16 16" xmlns="http://www.w3.org/2000/svg">
  <path d="M1.37251682,9.25725041 C0.11259568,7.70243731 0.892266432,6.65902433 0.892266432,6.65902433 C0.228517545,6.00096011 0.810211266,5.19912591 0.810211266,5.19912591 C1.12880402,4.78642885 1.46389926,4.4863565 1.78697007,4.26820495 C2.73274442,1.79314511 5.19282357,0.0287856 8.07863842,0.0287856 C11.1309546,0.0287856 13.706991,2.00261313 14.5186784,4.70350684 C15.1641511,4.9773901 14.9457387,5.60016755 14.7589246,5.94612403 C14.7709179,6.0786791 14.7787949,6.21237663 14.7824312,6.34709617 C15.9284544,7.50455646 14.7892473,9.27252449 14.7892473,9.27252449 C14.7892473,9.27252449 14.7877637,9.2713627 14.78476,9.26910627 L14.78476,11.2125456 C14.8053797,11.7828144 14.9370123,13.2344784 15.703064,14.94756 C16.6926591,17.160552 15.8736746,16.896312 15.1400252,16.7146416 C14.4063758,16.533 12.7684366,15.8228496 12.256575,16.6981392 C11.7447135,17.5734 11.3181572,18.3330864 10.1238234,17.83764 C8.92948965,17.3421936 8.36645084,17.1770544 8.19584023,17.1770544 L7.96411449,17.1770544 C7.79350388,17.1770544 7.23046507,17.3421936 6.03613131,17.83764 C4.84179754,18.3330864 4.41524127,17.5734 3.90337969,16.6981392 C3.39154787,15.8228496 1.75360867,16.533 1.0199295,16.7146416 C0.286280078,16.896312 -0.532704398,17.160552 0.45692044,14.94756 C1.19312872,13.301208 1.34359573,11.8939536 1.37251682,11.2805136 L1.37251682,9.25725041 Z M4.74322186,8.3725488 C5.14722445,10.059768 6.48702652,11.5761744 8.07863842,11.5761744 C9.67028008,11.5761744 11.0100524,10.059768 11.4140847,8.3725488 C10.634108,9.4107888 9.43040168,10.0773648 8.07863842,10.0773648 C6.72690492,10.0773648 5.52316882,9.4107888 4.74322186,8.3725488 Z M14.108211,4.7226419 C13.3101575,4.45185495 12.7431851,4.34091205 12.569867,4.3104588 C12.4486029,3.1116284 11.4625638,2.17688693 10.2640052,2.17688693 C9.4075447,2.17688693 8.66008138,2.65454592 8.25861005,3.36439316 L7.83357097,3.36439316 C7.43444178,2.64520844 6.68194286,2.16 5.81871948,2.16 C4.77576647,2.16 3.893806,2.86780378 3.60241505,3.84145614 C3.14083866,3.8795156 2.10558541,4.08652954 1.20866455,5.19099179 C1.20866455,5.19099179 0.658672544,5.91168072 1.2862478,6.50314913 C1.2862478,6.50314913 0.305039334,7.4133123 1.5128787,8.81836197 C1.78064516,9.216 3.17992305,7.6016229 7.96291542,7.6016229 C12.7458785,7.6016229 14.6744223,8.85216422 14.6744223,8.85216422 C14.6744223,8.85216422 15.6059189,7.11124905 14.2531599,6.08086226 C14.2531599,6.08086226 15.0744884,5.05047547 14.108211,4.7226419 Z" fill="#7a8798" />
  <path d="M10.125658,7.28614557 C9.34060675,7.28614557 8.70417921,6.34639434 8.70417921,5.18716867 C8.70417921,4.02791284 9.34060675,3.0881616 10.125658,3.0881616 C10.9107092,3.0881616 11.5471044,4.02791284 11.5471044,5.18716867 C11.5471044,6.34639434 10.9107092,7.28614557 10.125658,7.28614557" fill="#7a8798" />
  <path d="M6.1219982,3.0881616 C6.90704943,3.0881616 7.54347698,4.02791284 7.54347698,5.18716867 C7.54347698,6.34639434 6.90704943,7.28614557 6.1219982,7.28614557 C5.3369793,7.28614557 4.70058409,6.34639434 4.70058409,5.18716867 C4.70058409,4.02791284 5.3369793,3.0881616 6.1219982,3.0881616" fill="#7a8798" />
  <path d="M15.0860215,7.2 C15.0860215,7.2 16.2520975,6.94569888 16.9607832,8.52336288 C17.6694391,10.1010557 17.6694391,12.3989789 19.8309035,13.1878109 C21.9923679,13.9766429 18.803342,12.6047549 19.0159358,8.79774048 C19.2285296,4.99075488 14.344086,6 14.344086,6 L15.0860215,7.2 Z" fill="#7a8798" />
  <path d="M15.1890929,6.465528 C15.1890929,6.465528 18.0946505,4.6134576 19.7600528,6.6370032 C21.4254254,8.6605488 22.9845159,7.63164 22.9845159,7.63164 C22.9845159,7.63164 21.0710825,7.7345424 20.4687087,5.676696 C19.8663348,3.6188496 16.4647151,2.4527376 14.4095625,5.8138704 L15.1890929,6.465528 Z" fill="#7a8798" />
</svg>
