<?xml version="1.0" encoding="UTF-8" standalone="no"?>
<svg width="24px" height="16px" viewBox="0 0 24 16" version="1.1" xmlns="http://www.w3.org/2000/svg" xmlns:xlink="http://www.w3.org/1999/xlink">
    <!-- Generator: Sketch 3.8.2 (29753) - http://www.bohemiancoding.com/sketch -->
    <title>eraser</title>
    <desc>Created with Sketch.</desc>
    <defs></defs>
    <g id="icons-and-final" stroke="none" stroke-width="1" fill="none" fill-rule="evenodd">
        <g id="new-private-window" transform="translate(-1449.000000, -214.000000)" fill="#7A8797">
            <path d="M1452.32219,229.991248 L1450.59985,229.991248 C1450.28317,229.991248 1449.99354,229.9057 1449.73098,229.735129 C1449.46841,229.564426 1449.27051,229.337582 1449.13723,229.054551 C1449.01219,228.77117 1448.97257,228.473523 1449.01849,228.16113 C1449.06434,227.848781 1449.19144,227.576077 1449.39976,227.342931 L1460.60003,214.549609 C1460.91671,214.183086 1461.31667,214 1461.80004,214 L1471.40013,214 C1471.71676,214 1472.00652,214.085417 1472.26904,214.256076 C1472.53152,214.426647 1472.7296,214.653579 1472.86296,214.936741 C1472.98774,215.219991 1473.02763,215.517594 1472.98131,215.829987 C1472.9356,216.142336 1472.80841,216.414996 1472.60044,216.64823 L1462.27927,228.437496 L1472.9392,228.437496 L1472.9392,230 L1452.32219,230 L1452.32219,229.991248 Z M1450.59985,228.392045 L1455.87478,222.520475 L1465.47509,222.520475 L1460.2002,228.392045 L1450.59985,228.392045 Z" id="eraser"></path>
        </g>
    </g>
</svg>