<!-- This Source Code Form is subject to the terms of the Mozilla Public
   - License, v. 2.0. If a copy of the MPL was not distributed with this
   - file, You can obtain one at http://mozilla.org/MPL/2.0/. -->
<svg xmlns="http://www.w3.org/2000/svg" width="16" height="16" viewBox="0 0 16 16">
  <path fill="context-fill" d="M 12.656 16.01 L 7.163 16.01 L 7.701 14.995 C 7.819 14.756 7.88 14.516 7.88 14.278 C 7.88 13.442 7.223 12.785 6.387 12.785 C 5.552 12.785 4.893 13.442 4.893 14.278 C 4.893 14.516 4.954 14.815 5.072 14.995 L 5.61 16.01 L -0.001 16.01 L -0.001 10.399 L 1.014 11.055 C 1.029 11.062 1.044 11.069 1.058 11.077 C 1.058 11.077 1.591 11.285 1.825 11.293 C 2.644 11.275 3.283 10.624 3.283 9.801 C 3.283 8.973 2.64 8.323 1.818 8.308 C 1.535 8.312 1.285 8.393 1.003 8.537 L -0.001 9.083 L -0.001 3.353 L 3.521 3.353 C 3.521 3.175 3.462 3.055 3.462 2.876 C 3.462 1.324 4.716 0.01 6.327 0.01 C 7.939 0.01 9.193 1.324 9.193 2.876 C 9.193 3.055 9.193 3.175 9.134 3.353 L 12.656 3.353 L 12.656 6.935 C 12.774 6.935 12.954 6.875 13.133 6.875 C 14.684 6.875 15.999 8.189 15.999 9.742 C 15.999 11.293 14.684 12.606 13.133 12.606 C 12.954 12.606 12.833 12.606 12.656 12.547 L 12.656 16.01 Z M 9.193 14.636 L 11.283 14.636 L 11.283 10.399 L 12.297 10.996 C 12.536 11.115 12.774 11.234 13.073 11.234 C 13.91 11.234 14.566 10.578 14.566 9.742 C 14.566 8.906 13.91 8.248 13.073 8.248 C 12.774 8.248 12.536 8.308 12.297 8.488 L 11.283 9.083 L 11.283 4.666 L 6.983 4.666 L 7.581 3.651 C 7.701 3.413 7.819 3.115 7.819 2.876 C 7.819 2.04 7.163 1.384 6.327 1.384 C 5.491 1.384 4.775 2.04 4.775 2.876 C 4.775 3.175 4.834 3.413 5.013 3.651 L 5.67 4.666 L 1.312 4.666 L 1.312 6.875 C 1.492 6.875 1.611 6.816 1.79 6.816 C 3.072 6.816 4.19 7.711 4.542 8.897 C 4.654 9.199 4.716 9.525 4.716 9.86 C 4.716 11.413 3.402 12.606 1.85 12.606 C 1.669 12.606 1.488 12.593 1.312 12.564 L 1.312 14.576 L 3.521 14.576 C 3.521 14.457 3.521 14.338 3.521 14.159 C 3.521 12.606 4.834 11.293 6.387 11.293 C 7.939 11.293 9.253 12.606 9.253 14.159 C 9.253 14.398 9.193 14.516 9.193 14.636 Z"/>
</svg>
