<!-- This Source Code Form is subject to the terms of the Mozilla Public
   - License, v. 2.0. If a copy of the MPL was not distributed with this
   - file, You can obtain one at http://mozilla.org/MPL/2.0/. -->
<svg xmlns="http://www.w3.org/2000/svg" width="16" height="16" viewBox="0 0 16 16">
  <path fill="context-fill" d="M13,15.9H8c0,0,0-1.6,0-1.9l-3,0c0,0.3,0,1.9,0,1.9H0.1V11c0,0,1.8,0,2,0V8c-0.3,0-2,0-2,0V3.1H4C4,2.9,4,1.2,4,1&#10;&#9;c0,0,0.9,0,2.5,0C8.1,1,9,1,9,1s0,1.9,0,2.1h4v4c0.1,0,1.8,0,2,0c0,0,0,1,0,2.5c0,1.4,0,2.4,0,2.4c-0.2,0-2,0-2,0V15.9z M9,15h3.1&#10;&#9;v-4c0,0,1.3,0,1.9,0l0-3c-0.6,0-2,0-2,0V4H8c0,0,0-0.9,0-2c0,0-0.6,0-1.5,0c-1.1,0-1.6,0-1.6,0c0,0.9,0,2,0,2h-4v3c0.2,0,1.8,0,2,0&#10;&#9;l0,4.9c-0.2,0-2,0-2,0l0,3.1H4c0-0.2,0-1.8,0-2l5,0C9,13.3,9,14.8,9,15z"/>
</svg>
