<!-- This Source Code Form is subject to the terms of the Mozilla Public
   - License, v. 2.0. If a copy of the MPL was not distributed with this
   - file, You can obtain one at http://mozilla.org/MPL/2.0/. -->
<svg xmlns="http://www.w3.org/2000/svg" width="16" height="16" viewBox="0 0 16 16">
  <path fill="context-fill" d="M 1.038 11.414 L 4.235 3.083 L 5.405 3.083 L 8.828 11.414 L 7.567 11.414 L 6.576 8.893 L 3.109 8.893 L 2.208 11.414 L 1.038 11.414 Z M 3.424 7.992 L 6.261 7.992 L 5.405 5.65 C 5.135 4.93 4.955 4.39 4.82 3.939 C 4.685 4.479 4.551 5.019 4.37 5.515 L 3.424 7.992 Z M 13.601 10.649 C 13.241 10.964 12.835 11.189 12.521 11.324 C 12.16 11.459 11.799 11.504 11.394 11.504 C 10.719 11.504 10.224 11.324 9.864 11.009 C 9.503 10.694 9.324 10.288 9.324 9.748 C 9.324 9.433 9.369 9.163 9.503 8.938 C 9.638 8.713 9.819 8.487 10.045 8.352 C 10.269 8.217 10.494 8.082 10.765 8.037 C 10.944 7.992 11.259 7.947 11.665 7.902 C 12.476 7.812 13.106 7.677 13.467 7.542 C 13.467 7.406 13.467 7.316 13.467 7.272 C 13.467 6.866 13.377 6.551 13.196 6.371 C 12.926 6.145 12.566 6.011 12.025 6.011 C 11.53 6.011 11.169 6.101 10.944 6.281 C 10.719 6.46 10.539 6.731 10.449 7.181 L 9.458 7.046 C 9.548 6.596 9.683 6.281 9.909 6.011 C 10.134 5.74 10.403 5.561 10.81 5.425 C 11.215 5.29 11.665 5.2 12.16 5.2 C 12.656 5.2 13.106 5.245 13.422 5.38 C 13.736 5.515 13.961 5.65 14.142 5.831 C 14.277 6.011 14.411 6.236 14.456 6.506 C 14.547 6.731 14.547 7.046 14.547 7.497 L 14.547 8.847 C 14.547 9.793 14.547 10.379 14.592 10.649 C 14.637 10.919 14.726 11.144 14.862 11.369 L 13.781 11.369 C 13.691 11.189 13.646 10.919 13.601 10.649 Z M 13.512 8.352 C 13.151 8.487 12.566 8.622 11.844 8.757 C 11.44 8.802 11.124 8.893 10.944 8.983 C 10.765 9.072 10.629 9.163 10.539 9.297 C 10.449 9.433 10.403 9.613 10.403 9.793 C 10.403 10.063 10.494 10.288 10.719 10.468 C 10.944 10.649 11.215 10.738 11.62 10.738 C 12.025 10.738 12.385 10.649 12.656 10.468 C 12.97 10.288 13.196 10.063 13.331 9.748 C 13.422 9.523 13.512 9.163 13.512 8.713 L 13.512 8.352 Z M 10.134 4.074 C 10.134 3.669 10.224 3.353 10.449 3.128 C 10.674 2.903 10.944 2.768 11.259 2.768 C 11.485 2.768 11.799 2.858 12.205 3.083 C 12.476 3.219 12.656 3.264 12.745 3.264 C 12.881 3.264 12.97 3.219 13.015 3.174 C 13.106 3.083 13.151 2.949 13.196 2.768 L 13.916 2.768 C 13.916 3.219 13.781 3.534 13.601 3.759 C 13.422 3.984 13.151 4.074 12.835 4.074 C 12.611 4.074 12.295 3.984 11.89 3.759 C 11.62 3.624 11.44 3.534 11.349 3.534 C 11.215 3.534 11.124 3.578 11.034 3.669 C 10.944 3.759 10.9 3.894 10.9 4.074 L 10.134 4.074 Z M 1.038 13.035 L 14.907 13.035 L 14.907 14.026 L 1.038 14.026 L 1.038 13.035 Z"/>
</svg>
