<?xml version="1.0" encoding="utf-8"?>
<!-- Generator: Adobe Illustrator 21.1.0, SVG Export Plug-In . SVG Version: 6.00 Build 0)  -->
<svg version="1.1" id="Layer_1" xmlns="http://www.w3.org/2000/svg" xmlns:xlink="http://www.w3.org/1999/xlink" x="0px" y="0px"
	 width="16px" height="16px" viewBox="0 0 16 16" enable-background="new 0 0 16 16" xml:space="preserve">
<path d="M13.157,6.079h-1.42c-0.104-1.339-1.214-2.4-2.58-2.4H2.843c-1.434,0-2.601,1.167-2.601,2.601v1.444
	c0,1.434,1.167,2.601,2.601,2.601h1.42c0.104,1.339,1.215,2.4,2.58,2.4h6.314c1.434,0,2.601-1.167,2.601-2.601V8.679
	C15.758,7.245,14.591,6.079,13.157,6.079z M1.742,7.724V6.279c0-0.607,0.494-1.101,1.101-1.101h6.314c0.539,0,0.987,0.389,1.082,0.9
	H6.843c-1.434,0-2.601,1.167-2.601,2.601v0.145H2.843C2.236,8.824,1.742,8.331,1.742,7.724z M10.258,7.579v0.145
	c0,0.607-0.493,1.101-1.1,1.101H5.742V8.679c0-0.607,0.494-1.101,1.101-1.101H10.258z M14.258,10.124
	c0,0.606-0.494,1.101-1.101,1.101H6.843c-0.539,0-0.988-0.389-1.083-0.9h3.397c1.434,0,2.6-1.167,2.6-2.601V7.579h1.399
	c0.606,0,1.101,0.494,1.101,1.101V10.124z"/>
</svg>
