<svg xmlns="http://www.w3.org/2000/svg" width="16" height="16" viewBox="0 0 16 16">
  <path fill="context-fill" fill-opacity="context-fill-opacity" d="M 7.874 6.697 C 7.523 6.777 7.26 7.11 7.26 7.506 L 5.7 7.51 C 5.7 6.258 6.585 5.214 7.725 5.049 C 7.811 5.032 7.9 5.023 7.991 5.023 L 13.476 5.043 C 14.726 5.043 15.738 6.153 15.738 7.523 L 15.736 11.364 C 15.736 12.73 14.717 13.848 13.47 13.848 L 7.998 13.848 C 7.163 13.848 6.484 13.111 6.49 12.196 L 13.472 12.196 C 13.888 12.196 14.225 11.825 14.225 11.369 L 14.227 7.524 C 14.227 7.069 13.888 6.696 13.472 6.696 C 10.892 6.697 9.026 6.697 7.874 6.697 Z M 7.975 9.283 L 7.975 9.282 C 8.405 9.282 8.753 8.912 8.753 8.456 L 10.313 8.451 C 10.313 9.739 9.377 10.807 8.191 10.924 C 8.133 10.932 8.074 10.936 8.014 10.936 L 2.537 10.936 C 1.289 10.936 0.269 9.817 0.269 8.452 L 0.254 4.61 C 0.254 3.24 1.267 2.131 2.518 2.131 L 8.008 2.11 C 8.844 2.11 9.513 2.869 9.52 3.784 C 9.517 3.785 7.184 3.785 2.522 3.783 C 2.106 3.783 1.766 4.156 1.766 4.611 L 1.781 8.456 C 1.781 8.912 2.119 9.283 2.535 9.283 L 7.975 9.283 Z" />
</svg>
