<!-- This Source Code Form is subject to the terms of the Mozilla Public
   - License, v. 2.0. If a copy of the MPL was not distributed with this
   - file, You can obtain one at http://mozilla.org/MPL/2.0/. -->
<svg xmlns="http://www.w3.org/2000/svg" width="16" height="16" viewBox="0 0 16 16">
  <path fill="context-fill" d="M 3.042 15.228 C 2.446 15.228 1.898 14.979 1.501 14.581 C 1.103 14.184 0.854 13.636 0.854 13.04 C 0.854 12.443 1.103 11.896 1.501 11.498 L 6.574 6.474 C 6.474 6.076 6.425 5.678 6.425 5.281 C 6.375 2.843 8.364 0.854 10.801 0.854 C 11.349 0.854 11.846 0.953 12.393 1.152 L 13.189 1.451 L 10.602 4.037 C 10.205 4.435 10.205 5.032 10.602 5.43 C 11 5.828 11.597 5.828 11.995 5.43 L 14.581 2.843 L 14.88 3.639 C 15.079 4.186 15.178 4.733 15.178 5.281 C 15.178 7.718 13.189 9.707 10.752 9.707 C 10.354 9.707 9.956 9.657 9.558 9.558 L 4.584 14.581 C 4.186 14.979 3.639 15.228 3.042 15.228 Z M 10.801 1.948 C 8.961 1.948 7.469 3.44 7.469 5.281 C 7.469 5.678 7.519 6.076 7.668 6.425 L 7.817 6.773 L 2.296 12.294 C 2.097 12.492 1.998 12.741 1.998 13.04 C 1.998 13.338 2.097 13.587 2.296 13.786 C 2.694 14.184 3.391 14.184 3.788 13.786 L 9.309 8.265 L 9.657 8.414 C 10.055 8.563 10.404 8.613 10.801 8.613 C 12.642 8.613 14.134 7.121 14.134 5.281 C 14.134 5.181 14.134 5.032 14.134 4.932 L 12.791 6.226 C 12.393 6.623 11.846 6.822 11.299 6.822 C 10.752 6.822 10.205 6.623 9.807 6.226 C 8.961 5.38 8.961 4.087 9.807 3.241 L 11.05 1.998 C 11 1.998 10.901 1.948 10.801 1.948 Z"/>
</svg>
