<!-- This Source Code Form is subject to the terms of the Mozilla Public
   - License, v. 2.0. If a copy of the MPL was not distributed with this
   - file, You can obtain one at http://mozilla.org/MPL/2.0/. -->
<svg xmlns="http://www.w3.org/2000/svg" width="16" height="16" viewBox="0 0 16 16">
  <path fill="context-fill" d="M 12.428 14.025 L 12.428 1.83 C 12.428 1.329 12.019 0.92 11.518 0.92 L 4.51 0.92 C 4.009 0.92 3.6 1.329 3.6 1.83 L 3.6 14.025 C 3.6 14.526 4.009 14.935 4.51 14.935 L 11.518 14.935 C 12.019 14.935 12.428 14.526 12.428 14.025 Z M 5.056 1.921 L 10.972 1.921 C 11.245 1.921 11.427 2.103 11.427 2.375 L 11.381 13.433 C 11.381 13.707 11.199 13.889 10.926 13.889 L 5.056 13.889 C 4.783 13.889 4.601 13.707 4.601 13.433 L 4.601 2.375 C 4.601 2.148 4.828 1.921 5.056 1.921 Z"/>
</svg>
