<!-- This Source Code Form is subject to the terms of the Mozilla Public
   - License, v. 2.0. If a copy of the MPL was not distributed with this
   - file, You can obtain one at http://mozilla.org/MPL/2.0/. -->
<svg xmlns="http://www.w3.org/2000/svg" width="16" height="16" viewBox="0 0 16 16">
  <path fill-opacity="context-fill-opacity" fill="context-fill" d="M 5 1 C 4.5 1 4 1.4003906 4 1.9003906 L 4 14 C 4 14.5 4.5 14.900391 5 14.900391 L 11 14.900391 C 11.5 14.900391 12 14.6 12 14 L 12 1.9003906 C 12 1.4003906 11.500391 1 10.900391 1 L 5 1 z M 5.5 2 L 10.5 2 C 10.8 2 11 2.2 11 2.5 L 11 13.5 C 11 13.8 10.899609 14 10.599609 14 L 5.5 14 C 5.2 14 5 13.8 5 13.5 L 5 2.5 C 5 2.2 5.2 2 5.5 2 z M 7 12 L 7 12.900391 L 9 12.900391 L 9 12 L 7 12 z "/>
</svg>
