<!-- This Source Code Form is subject to the terms of the Mozilla Public
   - License, v. 2.0. If a copy of the MPL was not distributed with this
   - file, You can obtain one at http://mozilla.org/MPL/2.0/. -->
<svg xmlns="http://www.w3.org/2000/svg" width="16" height="16" viewBox="0 0 16 16">
  <path fill="context-fill" d="M 3.8007812 1.1992188 C 2.3007813 1.1992187 1 2.4 1 4 L 1 12.199219 C 1 13.699219 2.3003906 15 3.9003906 15 L 12.099609 15 C 13.599609 15 14.900781 13.699219 14.800781 12.199219 L 14.800781 4 C 14.800781 2.5 13.6 1.1992188 12 1.1992188 L 3.8007812 1.1992188 z M 10.300781 2 C 10.800781 2 11.199609 2.0992187 11.599609 2.1992188 L 12.300781 2.4003906 L 10.099609 4.5996094 C 9.7996094 4.8996094 9.7996094 5.4007813 10.099609 5.8007812 C 10.399609 6.1007812 10.900781 6.1007812 11.300781 5.8007812 L 13.5 3.5996094 L 13.699219 4.3007812 C 13.899219 4.8007813 14 5.2992187 14 5.6992188 C 14 7.6992188 12.300781 9.4003906 10.300781 9.4003906 C 10.000781 9.4003906 9.6007813 9.4007812 9.3007812 9.3007812 L 5.0996094 13.5 C 4.7996094 13.8 4.4003906 14 3.9003906 14 C 3.4003906 14 2.8996094 13.8 2.5996094 13.5 C 2.1996094 13.2 2 12.699219 2 12.199219 C 2 11.699219 2.2 11.200391 2.5 10.900391 L 6.6992188 6.6992188 C 6.5992188 6.3992188 6.5996094 5.9992188 6.5996094 5.6992188 C 6.5996094 3.6992188 8.2007813 2 10.300781 2 z M 10.300781 3 C 8.8007812 3 7.5996094 4.1992187 7.5996094 5.6992188 C 7.5996094 5.9992187 7.6007813 6.3992187 7.8007812 6.6992188 L 7.8007812 7 L 3.1992188 11.599609 C 3.0992187 11.799609 3 11.999219 3 12.199219 C 3 12.399219 3.0992187 12.700781 3.1992188 12.800781 C 3.4992187 13.100781 4.1003906 13.100781 4.4003906 12.800781 L 9 8.1992188 L 9.3007812 8.3007812 C 9.6007813 8.4007812 9.9007812 8.5 10.300781 8.5 C 11.800781 8.5 13.099609 7.2992188 13.099609 5.6992188 L 13.099609 5.4003906 L 12 6.5 C 11.7 6.9 11.200781 7 10.800781 7 C 10.400781 7 9.8 6.9 9.5 6.5 C 8.8 5.8 8.8 4.7 9.5 4 L 10.5 3 L 10.300781 3 z "/>
</svg>
