<!-- This Source Code Form is subject to the terms of the Mozilla Public
   - License, v. 2.0. If a copy of the MPL was not distributed with this
   - file, You can obtain one at http://mozilla.org/MPL/2.0/. -->
<svg xmlns="http://www.w3.org/2000/svg" width="16" height="16" viewBox="0 0 16 16">
  <path fill="context-fill" d="M 11.384 6.963 C 11.071 7.277 10.705 7.433 10.235 7.433 C 9.818 7.433 9.4 7.277 9.087 6.963 C 8.774 6.65 8.617 6.285 8.617 5.815 C 8.617 5.345 8.826 4.98 9.087 4.667 L 10.027 3.727 C 9.974 3.727 9.87 3.727 9.818 3.727 C 8.461 3.727 7.312 4.823 7.312 6.233 C 7.312 6.546 7.365 6.807 7.469 7.12 L 7.573 7.381 L 3.398 11.557 C 3.085 11.87 3.085 12.392 3.398 12.705 C 3.711 13.018 4.233 13.018 4.546 12.705 L 8.722 8.529 L 8.983 8.634 C 9.244 8.738 9.557 8.79 9.87 8.79 C 11.227 8.79 12.375 7.694 12.375 6.285 C 12.375 6.181 12.375 6.128 12.375 6.024 Z M 13.941 1.326 L 9.453 1.326 L 7.991 0.282 L 6.53 1.326 L 2.041 1.326 C 1.467 1.326 0.997 1.796 0.997 2.37 L 0.997 14.01 C 0.997 14.584 1.467 15.054 2.041 15.054 L 13.941 15.106 C 14.516 15.106 14.985 14.636 14.985 14.062 L 14.985 2.37 C 14.985 1.796 14.516 1.326 13.941 1.326 Z M 9.87 9.573 C 9.557 9.573 9.244 9.521 8.983 9.469 L 5.172 13.227 C 4.859 13.54 4.442 13.697 4.024 13.697 C 3.607 13.697 3.189 13.54 2.876 13.227 C 2.25 12.601 2.25 11.557 2.876 10.878 L 6.686 7.068 C 6.582 6.755 6.582 6.494 6.582 6.181 C 6.53 4.406 7.991 2.892 9.87 2.892 C 10.288 2.892 10.653 2.944 11.071 3.101 L 11.697 3.31 L 9.766 5.241 C 9.609 5.398 9.557 5.554 9.557 5.763 C 9.557 5.972 9.609 6.128 9.766 6.285 C 10.027 6.546 10.549 6.546 10.81 6.285 L 12.741 4.354 L 12.95 4.98 C 13.106 5.398 13.211 5.815 13.211 6.233 C 13.211 8.06 11.697 9.573 9.87 9.573 Z"/>
</svg>
