<!-- This Source Code Form is subject to the terms of the Mozilla Public
   - License, v. 2.0. If a copy of the MPL was not distributed with this
   - file, You can obtain one at http://mozilla.org/MPL/2.0/. -->
<svg xmlns="http://www.w3.org/2000/svg" width="16" height="16" viewBox="0 0 16 16">
  <path fill="context-fill" d="M 2.796 11.948 L 1.651 11.948 L 1.651 0.962 L 10.919 0.962 L 10.919 2.108 L 2.796 2.108 Z M 14.251 15.02 L 4.358 15.02 L 4.358 3.774 L 14.199 3.774 Z M 13.105 13.875 L 13.105 4.919 L 5.556 4.919 L 5.556 13.875 Z M 10.814 11.793 L 8.68 11.793 C 8.055 11.793 7.534 11.272 7.534 10.647 L 7.534 8.148 C 7.534 7.523 8.055 7.003 8.68 7.003 L 10.814 7.003 L 10.814 7.575 L 8.68 7.575 C 8.367 7.575 8.107 7.835 8.107 8.148 L 8.107 10.647 C 8.107 10.959 8.367 11.22 8.68 11.22 L 10.814 11.22 Z"/>
</svg>
