<!-- This Source Code Form is subject to the terms of the Mozilla Public
   - License, v. 2.0. If a copy of the MPL was not distributed with this
   - file, You can obtain one at http://mozilla.org/MPL/2.0/. -->
<svg xmlns="http://www.w3.org/2000/svg" width="16" height="16" viewBox="0 0 16 16">
  <path fill="context-fill" d="M 11.213 14.975 L 1.824 14.975 L 1.824 4.005 L 11.164 4.005 Z M 10.126 13.888 L 10.126 5.141 L 2.961 5.141 L 2.961 13.888 Z M 14.178 12.158 L 12.942 12.158 L 12.942 11.071 L 13.091 11.071 L 13.091 10.923 L 14.178 10.923 Z M 11.559 2.177 L 10.175 2.177 L 10.175 1.09 L 11.559 1.09 Z M 8.742 2.177 L 7.359 2.177 L 7.359 1.09 L 8.742 1.09 Z M 13.041 2.325 L 13.041 2.177 L 12.942 2.177 L 12.942 1.09 L 14.128 1.09 L 14.128 2.325 Z M 5.876 2.275 L 4.789 2.275 L 4.789 1.09 L 6.025 1.09 L 5.975 2.177 L 5.876 2.177 Z M 13.091 9.688 L 13.091 8.452 L 14.178 8.452 L 14.178 9.688 Z M 13.041 4.796 L 13.041 3.56 L 14.128 3.56 L 14.128 4.796 Z M 13.041 7.266 L 13.041 6.031 L 14.128 6.031 L 14.128 7.266 Z"/>
</svg>
