<!-- This Source Code Form is subject to the terms of the Mozilla Public
   - License, v. 2.0. If a copy of the MPL was not distributed with this
   - file, You can obtain one at http://mozilla.org/MPL/2.0/. -->
<svg xmlns="http://www.w3.org/2000/svg" width="16" height="16" viewBox="0 0 16 16">
  <path fill="context-fill" d="M 12.352 9.635 C 11.309 9.635 10.423 10.208 10.006 11.094 L 8.599 8.436 L 11.883 1.868 C 12.04 1.607 11.883 1.242 11.622 1.086 C 11.361 0.929 10.997 1.034 10.841 1.346 L 7.921 7.185 L 4.846 1.346 C 4.741 1.086 4.376 0.929 4.063 1.086 C 3.803 1.242 3.699 1.607 3.856 1.868 L 7.296 8.436 L 5.993 11.042 C 5.523 10.208 4.637 9.635 3.646 9.635 C 2.187 9.635 0.936 10.834 0.936 12.346 C 0.936 13.805 2.135 15.056 3.646 15.056 C 4.585 15.056 5.366 14.587 5.888 13.857 C 5.94 13.805 5.993 13.753 5.993 13.7 L 7.974 9.738 L 9.85 13.388 C 10.267 14.379 11.205 15.056 12.352 15.056 C 13.811 15.056 15.063 13.857 15.063 12.346 C 15.01 10.834 13.811 9.635 12.352 9.635 Z M 3.646 13.857 C 2.812 13.857 2.082 13.18 2.082 12.293 C 2.082 11.459 2.76 10.73 3.646 10.73 C 4.481 10.73 5.211 11.407 5.211 12.293 C 5.158 13.18 4.481 13.857 3.646 13.857 Z M 12.352 13.857 C 11.779 13.857 11.309 13.544 11.049 13.128 C 11.049 13.128 11.049 13.128 11.049 13.075 L 10.945 12.867 C 10.892 12.71 10.841 12.501 10.841 12.346 C 10.841 11.511 11.518 10.781 12.404 10.781 C 13.239 10.781 13.968 11.459 13.968 12.346 C 13.864 13.18 13.186 13.857 12.352 13.857 Z"/>
</svg>
