<!-- This Source Code Form is subject to the terms of the Mozilla Public
   - License, v. 2.0. If a copy of the MPL was not distributed with this
   - file, You can obtain one at http://mozilla.org/MPL/2.0/. -->
<svg xmlns="http://www.w3.org/2000/svg" width="16" height="16" viewBox="0 0 16 16">
  <path fill="context-fill" d="M 0.93 5.637 L 0.93 6.961 C 5.396 6.961 8.982 10.6 8.982 15.012 L 10.359 15.012 C 10.359 9.828 6.168 5.637 0.93 5.637 Z M 0.655 13.083 C 0.655 14.296 1.647 15.288 2.86 15.288 C 4.073 15.288 5.067 14.296 5.067 13.083 C 5.067 11.868 4.073 10.876 2.86 10.876 C 1.647 10.876 0.655 11.868 0.655 13.083 Z M 3.688 13.083 C 3.688 13.523 3.301 13.909 2.86 13.909 C 2.418 13.909 2.033 13.523 2.033 13.083 C 2.033 12.641 2.364 12.255 2.86 12.255 C 3.301 12.255 3.688 12.641 3.688 13.083 Z M 0.985 0.729 L 0.985 2.108 C 8.099 2.108 13.89 7.899 13.89 15.012 L 15.268 15.012 C 15.268 7.126 8.871 0.729 0.985 0.729 Z"/>
</svg>
