<!-- This Source Code Form is subject to the terms of the Mozilla Public
   - License, v. 2.0. If a copy of the MPL was not distributed with this
   - file, You can obtain one at http://mozilla.org/MPL/2.0/. -->
<svg xmlns="http://www.w3.org/2000/svg" width="16" height="16" viewBox="0 0 16 16">
  <path fill="context-fill" d="M 6.9003906 0.94921875 C 3.6784084 0.94921875 1.0507812 3.578799 1.0507812 6.8007812 C 1.0507814 10.022763 3.6784084 12.650391 6.9003906 12.650391 C 8.0879921 12.650391 9.1948599 12.291851 10.119141 11.679688 L 13.369141 14.929688 L 14.429688 13.869141 L 11.251953 10.691406 C 12.179387 9.6556493 12.75 8.2949823 12.75 6.8007812 C 12.75 3.5787991 10.122373 0.94921875 6.9003906 0.94921875 z M 6.9003906 2.4492188 C 9.3117127 2.4492188 11.25 4.3894592 11.25 6.8007812 C 11.25 9.2121033 9.3117127 11.150391 6.9003906 11.150391 C 4.4890686 11.150391 2.5507813 9.2121033 2.5507812 6.8007812 C 2.5507812 4.3894592 4.4890685 2.4492188 6.9003906 2.4492188 z "/>
</svg>
