<!-- This Source Code Form is subject to the terms of the Mozilla Public
   - License, v. 2.0. If a copy of the MPL was not distributed with this
   - file, You can obtain one at http://mozilla.org/MPL/2.0/. -->
<svg xmlns="http://www.w3.org/2000/svg" width="16" height="16" viewBox="0 0 16 16">
  <path fill="context-fill" d="M 14.909 13.735 L 10.809 9.635 C 11.527 8.712 11.987 7.585 11.987 6.354 C 11.987 3.433 9.63 1.075 6.76 1.075 C 3.839 1.075 1.481 3.433 1.481 6.354 C 1.481 9.276 3.839 11.633 6.76 11.633 C 7.938 11.633 9.066 11.223 9.938 10.556 L 14.038 14.657 C 14.14 14.76 14.345 14.862 14.499 14.862 C 14.654 14.862 14.807 14.811 14.961 14.657 C 15.165 14.35 15.165 13.939 14.909 13.735 Z M 2.763 6.354 C 2.763 4.151 4.557 2.357 6.76 2.357 C 8.964 2.357 10.757 4.151 10.757 6.354 C 10.757 8.558 8.964 10.352 6.76 10.352 C 4.557 10.352 2.763 8.558 2.763 6.354 Z"/>
</svg>
