<!-- This Source Code Form is subject to the terms of the Mozilla Public
   - License, v. 2.0. If a copy of the MPL was not distributed with this
   - file, You can obtain one at http://mozilla.org/MPL/2.0/. -->
<svg xmlns="http://www.w3.org/2000/svg" width="16" height="16" viewBox="0 0 16 16">
  <path fill="context-fill" d="M 7.8620581,4.1692067 V 2.4505698 L 5.4781424,4.8344855 6.0325414,5.3888845 7.4185389,6.8303219 7.917498,7.329281 V 5.3888845 c 0.6652788,0 1.3859975,0.2217596 1.8849566,0.7207187 0.9979184,0.9979182 0.9979184,2.6056753 0,3.5481536 -0.9979182,0.9979182 -2.6056753,0.9979182 -3.5481536,0 C 5.699902,9.1033578 5.4227025,8.3271992 5.5335823,7.5510406 5.5890222,7.2184012 5.3118227,6.8857618 4.9791833,6.8303219 4.6465439,6.774882 4.3139045,7.0520815 4.2584646,7.3847209 4.0921449,8.5489588 4.4802242,9.7131967 5.3118227,10.544795 c 0.7207187,0.720719 1.7186369,1.108798 2.6611152,1.108798 0.9424783,0 1.9403965,-0.388079 2.6611151,-1.108798 1.441438,-1.4968771 1.441438,-3.8807928 0,-5.3222302 C 9.8578945,4.5018461 8.8599763,4.1137668 7.8620581,4.1692067 Z M 7.9729379,0.676493 c -3.9916728,0 -7.2626269,3.2709541 -7.2626269,7.2626269 0,3.9916731 3.2709541,7.2626271 7.2626269,7.2626271 3.9916731,0 7.2626271,-3.270954 7.2626271,-7.2626271 C 15.180125,3.9474471 11.964611,0.676493 7.9729379,0.676493 Z m 0,13.250136 c -3.326394,0 -5.9875092,-2.661115 -5.9875092,-5.9875091 0,-3.326394 2.6611152,-5.9875092 5.9875092,-5.9875092 3.3263941,0 5.9875091,2.6611152 5.9875091,5.9875092 0,3.2709541 -2.716555,5.9875091 -5.9875091,5.9875091 z"/>
</svg>
