<!-- This Source Code Form is subject to the terms of the Mozilla Public
   - License, v. 2.0. If a copy of the MPL was not distributed with this
   - file, You can obtain one at http://mozilla.org/MPL/2.0/. -->
<svg xmlns="http://www.w3.org/2000/svg" width="16" height="16" viewBox="0 0 16 16">
  <path fill="context-fill" d="M 9.197 7.446 C 9.043 7.446 8.89 7.395 8.735 7.242 C 8.479 6.986 8.479 6.575 8.735 6.37 L 12.836 2.271 L 9.76 2.271 L 9.76 0.991 L 14.987 0.991 L 14.987 6.217 L 13.758 6.217 L 13.758 3.092 L 9.607 7.242 C 9.504 7.395 9.351 7.446 9.197 7.446 Z M 2.28 12.827 L 6.328 8.779 C 6.585 8.523 6.994 8.523 7.199 8.779 C 7.455 9.035 7.455 9.444 7.199 9.651 L 3.1 13.749 L 6.226 13.749 L 6.226 15.03 L 0.999 15.03 L 0.999 9.803 L 2.28 9.803 Z"/>
</svg>
