<!-- This Source Code Form is subject to the terms of the Mozilla Public
   - License, v. 2.0. If a copy of the MPL was not distributed with this
   - file, You can obtain one at http://mozilla.org/MPL/2.0/. -->
<svg xmlns="http://www.w3.org/2000/svg" width="16" height="16" viewBox="0 0 16 16">
  <path fill="context-fill" d="M 14.722 1.271 C 14.47 1.019 14.067 1.019 13.865 1.271 L 9.829 5.307 L 9.829 2.28 L 8.568 2.28 L 8.568 7.426 L 13.713 7.426 L 13.713 6.164 L 10.636 6.164 L 14.722 2.129 C 14.975 1.877 14.975 1.473 14.722 1.271 Z M 2.313 9.746 L 5.39 9.746 L 1.304 13.832 C 1.052 14.084 1.052 14.488 1.304 14.689 C 1.405 14.79 1.607 14.891 1.758 14.891 C 1.91 14.891 2.061 14.841 2.212 14.689 L 6.248 10.654 L 6.248 13.681 L 7.509 13.681 L 7.509 8.535 L 2.313 8.535 Z"/>
</svg>
