<!-- This Source Code Form is subject to the terms of the Mozilla Public
   - License, v. 2.0. If a copy of the MPL was not distributed with this
   - file, You can obtain one at http://mozilla.org/MPL/2.0/. -->
<svg xmlns="http://www.w3.org/2000/svg" width="16" height="16" viewBox="0 0 16 16">
  <path fill="context-fill" d="M 9 1.0996094 L 9 2.9003906 L 12.300781 2.9003906 L 8.3007812 6.8007812 C 8.0007812 7.1007812 8.1007813 7.4992187 8.3007812 7.6992188 C 8.4007812 7.7992187 8.6007813 7.9003906 8.8007812 7.9003906 C 9.0007812 7.9003906 9.1007813 7.7992188 9.3007812 7.6992188 L 13.199219 3.6992188 L 13.199219 7 L 14.900391 7 L 14.900391 1.0996094 L 9 1.0996094 z M 7.0996094 8.1992188 C 6.8996094 8.1992188 6.7996094 8.3003906 6.5996094 8.4003906 L 2.8007812 12.400391 L 2.8007812 9.0996094 L 1 9.0996094 L 1 15 L 6.9003906 15 L 6.9003906 13.199219 L 3.8007812 13.199219 L 7.5996094 9.3007812 C 7.8996094 9.0007812 7.7996094 8.6003906 7.5996094 8.4003906 C 7.4996094 8.3003906 7.2996094 8.1992188 7.0996094 8.1992188 z "/>
</svg>
