<!-- This Source Code Form is subject to the terms of the Mozilla Public
   - License, v. 2.0. If a copy of the MPL was not distributed with this
   - file, You can obtain one at http://mozilla.org/MPL/2.0/. -->
<svg xmlns="http://www.w3.org/2000/svg" width="16" height="16" viewBox="0 0 16 16">
  <path fill="context-fill" d="M8,1C4.1,1,1,4.1,1,8s3.1,7,7,7s7-3.1,7-7S11.9,1,8,1z M8,14c-3.3,0-6-2.7-6-6s2.7-6,6-6s6,2.7,6,6S11.3,14,8,14z M8,3.1C6.5,3,5.1,4.1,5.1,5.6c0,0.5,0.4,0.7,0.9,0.7s0.9-0.4,0.9-0.9c0-0.9,0.8-0.9,1.2-0.9c0.5,0,1,0.5,1,1.1c0,0.4-0.2,0.8-0.5,1C7.7,7.1,7.1,8,7.1,9v0.3c0,0.5,0.4,0.9,0.9,0.9s0.9-0.4,0.9-0.9V9c0-0.4,0.4-0.8,0.7-1c1-0.7,1.5-1.6,1.2-2.8C10.5,3.9,9.3,3.1,8,3.1z M8,10.8c-0.7,0-1.2,0.6-1.2,1.2s0.6,1.2,1.2,1.2s1.2-0.6,1.2-1.2S8.7,10.8,8,10.8z"/>
</svg>
