<!-- This Source Code Form is subject to the terms of the Mozilla Public
   - License, v. 2.0. If a copy of the MPL was not distributed with this
   - file, You can obtain one at http://mozilla.org/MPL/2.0/. -->
<svg xmlns="http://www.w3.org/2000/svg" width="16" height="16" viewBox="0 0 16 16">
  <path fill="context-fill" d="M 8.047 14.925 C 4.202 14.925 1.055 11.778 1.055 7.932 C 1.055 4.087 4.202 0.94 8.047 0.94 C 11.893 0.94 15.04 4.087 15.04 7.932 C 15.04 11.778 11.893 14.925 8.047 14.925 Z M 8.047 2.189 C 4.851 2.189 2.304 4.736 2.304 7.932 C 2.304 11.129 4.901 13.726 8.097 13.726 C 11.294 13.726 13.891 11.129 13.891 7.932 C 13.841 4.736 11.244 2.189 8.047 2.189 Z M 3.823 8.072 C 3.823 7.755 4.063 7.49 4.351 7.49 L 7.578 7.49 L 7.578 3.479 C 7.578 3.167 7.828 2.907 8.128 2.907 C 8.427 2.907 8.677 3.167 8.677 3.479 L 8.677 8.058 C 8.677 8.095 8.673 8.132 8.667 8.168 C 8.624 8.44 8.404 8.653 8.146 8.653 L 4.351 8.653 C 4.063 8.653 3.823 8.389 3.823 8.072 Z"/>
</svg>
