<!-- This Source Code Form is subject to the terms of the Mozilla Public
   - License, v. 2.0. If a copy of the MPL was not distributed with this
   - file, You can obtain one at http://mozilla.org/MPL/2.0/. -->
<svg xmlns="http://www.w3.org/2000/svg" width="16" height="16" viewBox="0 0 16 16">
  <path fill="context-fill" d="M8,15.1c-3.9,0-7.1-3.2-7.1-7.1c0-3.9,3.2-7.1,7.1-7.1C11.9,0.9,15,4.1,15,8C15,11.9,11.9,15.1,8,15.1z M8,2.2C4.8,2.2,2.2,4.8,2.2,8c0,3.2,2.6,5.9,5.8,5.9c3.2,0,5.9-2.6,5.9-5.9C13.8,4.8,11.2,2.2,8,2.2z M3.4,8c0-0.6,0.6-0.9,0.9-0.9H7V3.8c0-0.3,0.3-0.9,1-0.9c0.6,0,1,0.6,1,0.9v4.6c0,0,0,0,0,0c0,0.3-0.3,0.5-0.5,0.5H4.2C4,8.9,3.4,8.8,3.4,8z"/>
</svg>
