<!-- This Source Code Form is subject to the terms of the Mozilla Public
   - License, v. 2.0. If a copy of the MPL was not distributed with this
   - file, You can obtain one at http://mozilla.org/MPL/2.0/. -->
<svg xmlns="http://www.w3.org/2000/svg" width="16" height="16" viewBox="0 0 16 16">
  <path fill="context-fill" d="M 15.643 7.148 L 7.982 1.009 L 0.372 7.148 C 0.119 7.351 0.068 7.756 0.271 8.009 C 0.372 8.162 0.575 8.263 0.728 8.263 C 0.88 8.263 0.981 8.212 1.133 8.111 L 2.554 6.996 L 2.554 15.011 L 5.749 15.011 L 10.214 15.011 L 13.461 15.011 L 13.461 6.945 L 14.882 8.06 C 15.135 8.263 15.542 8.212 15.744 7.958 C 15.947 7.756 15.897 7.351 15.643 7.148 Z M 8.743 13.844 L 7.22 13.844 L 7.22 9.532 L 8.743 9.532 L 8.743 13.844 Z M 12.294 13.844 L 10.214 13.844 L 9.859 13.844 L 9.859 8.365 L 6.055 8.365 L 6.055 13.844 L 5.749 13.844 L 3.67 13.844 L 3.67 6.032 L 7.982 2.582 L 12.294 6.032 L 12.294 13.844 Z"/>
</svg>
