<!-- This Source Code Form is subject to the terms of the Mozilla Public
   - License, v. 2.0. If a copy of the MPL was not distributed with this
   - file, You can obtain one at http://mozilla.org/MPL/2.0/. -->
<svg xmlns="http://www.w3.org/2000/svg" width="16" height="16" viewBox="0 0 16 16">
  <path fill="context-fill" d="M15.6,7.1L8,1L0.5,7C0.2,7.3,0.2,7.7,0.4,7.9c0.1,0.2,0.3,0.3,0.5,0.3C1,8.2,1.1,8.1,1.2,8L3,6.6l0,8.4h2.7h4.5H13V6.5l1.9,1.5c0.3,0.2,0.7,0.2,0.9-0.1C15.9,7.8,15.9,7.4,15.6,7.1z M9,14H6.9V9H9V14z M12.1,14h-1.9H9.9v-6H6.1v6H5.7H4l0-8.3l4-3.2l4.1,3.3V14z"/>
</svg>
