<!-- This Source Code Form is subject to the terms of the Mozilla Public
   - License, v. 2.0. If a copy of the MPL was not distributed with this
   - file, You can obtain one at http://mozilla.org/MPL/2.0/. -->
<svg xmlns="http://www.w3.org/2000/svg" width="16" height="16" viewBox="0 0 16 16">
  <path fill="context-fill" d="M 0.014 13.735 L 0.014 9.561 L 1.36 9.561 C 1.81 9.561 2.213 9.202 2.213 8.709 L 2.213 4.086 C 2.213 3.1 3.065 2.246 4.053 2.246 L 11.01 2.246 C 12.042 2.246 12.85 3.1 12.85 4.086 L 12.85 8.709 C 12.85 9.158 13.208 9.561 13.703 9.561 L 15.05 9.561 L 15.05 13.735 Z M 1 12.703 L 14.062 12.703 L 14.062 10.549 L 13.703 10.549 C 12.67 10.549 11.862 9.697 11.862 8.709 L 11.862 4.086 C 11.862 3.637 11.503 3.234 11.01 3.234 L 4.053 3.234 C 3.604 3.234 3.2 3.592 3.2 4.086 L 3.2 8.709 C 3.2 9.741 2.348 10.549 1.36 10.549 L 1 10.549 Z M 9.573 7.542 L 8.047 7.542 L 8.047 9.023 C 8.047 9.337 7.823 9.561 7.509 9.561 C 7.196 9.561 6.97 9.337 6.97 9.023 L 6.97 7.542 L 5.489 7.542 C 5.175 7.542 4.952 7.318 4.952 7.003 C 4.952 6.689 5.175 6.465 5.489 6.465 L 6.97 6.465 L 6.97 4.939 C 6.97 4.625 7.196 4.4 7.509 4.4 C 7.823 4.4 8.047 4.625 8.047 4.939 L 8.047 6.465 L 9.573 6.465 C 9.887 6.465 10.112 6.689 10.112 7.003 C 10.112 7.318 9.887 7.542 9.573 7.542 Z"/>
</svg>
