<!-- This Source Code Form is subject to the terms of the Mozilla Public
   - License, v. 2.0. If a copy of the MPL was not distributed with this
   - file, You can obtain one at http://mozilla.org/MPL/2.0/. -->
<svg xmlns="http://www.w3.org/2000/svg" width="16" height="16" viewBox="0 0 16 16">
  <path fill="context-fill" d="M 0.01171875 1.546875 L 0.01171875 14.240234 L 15.976562 14.240234 L 15.976562 1.546875 L 0.01171875 1.546875 z M 1.1015625 2.6386719 L 14.886719 2.6386719 L 14.886719 5.3632812 L 1.1015625 5.3632812 L 1.1015625 2.6386719 z M 2.2910156 3.4804688 L 2.2910156 4.4726562 L 3.2832031 4.4726562 L 3.3320312 4.4726562 L 3.3320312 3.4804688 L 3.2832031 3.4804688 L 2.2910156 3.4804688 z M 3.828125 3.4804688 L 3.828125 4.4726562 L 4.8203125 4.4726562 L 4.8691406 4.4726562 L 4.8691406 3.4804688 L 4.8203125 3.4804688 L 3.828125 3.4804688 z M 5.4140625 3.4804688 L 5.4140625 4.4726562 L 6.40625 4.4726562 L 6.40625 3.4804688 L 5.4140625 3.4804688 z M 1.1015625 6.4550781 L 14.886719 6.4550781 L 14.886719 13.150391 L 1.1015625 13.150391 L 1.1015625 6.4550781 z "/>
</svg>
