<!-- This Source Code Form is subject to the terms of the Mozilla Public
   - License, v. 2.0. If a copy of the MPL was not distributed with this
   - file, You can obtain one at http://mozilla.org/MPL/2.0/. -->
<svg xmlns="http://www.w3.org/2000/svg" width="16" height="16" viewBox="0 0 16 16">
  <path fill="context-fill" d="M 0 1.0996094 L 0 13.900391 L 16 13.900391 L 16 1.0996094 L 0 1.0996094 z M 1 2 L 15 2 L 15 5 L 1 5 L 1 2 z M 2.0996094 3.0996094 L 2.0996094 4 L 2.9003906 4 L 3 4 L 3 3.0996094 L 2.9003906 3.0996094 L 2.0996094 3.0996094 z M 4 3.0996094 L 4 4 L 5 4 L 5 3.0996094 L 4 3.0996094 z M 6 3.0996094 L 6 4 L 6.9003906 4 L 6.9003906 3.0996094 L 6 3.0996094 z M 1 6 L 15 6 L 15 13 L 1 13 L 1 6 z "/>
</svg>
