<!-- This Source Code Form is subject to the terms of the Mozilla Public
   - License, v. 2.0. If a copy of the MPL was not distributed with this
   - file, You can obtain one at http://mozilla.org/MPL/2.0/. -->
<svg xmlns="http://www.w3.org/2000/svg" width="16" height="16" viewBox="0 0 16 16">
  <path fill="context-fill" d="M15.9,6.2L15.9,6.2V4H7.5C7.3,4,7.2,4,7.1,3.9L5.6,2.3C5.3,2,4.9,2,4.5,2H0.1v4.1l0,0v0.3l0,0v7.5h15.8V6.7C15.9,6.7,15.9,6.2,15.9,6.2z M4.5,3c0.2,0,0.6,0,0.7,0.1l1.1,1.1C6.6,4.5,7,5,7.4,5H15v1.1H1V3H4.5z M1,13V7h14v6L1,13z"/>
</svg>
