<!-- This Source Code Form is subject to the terms of the Mozilla Public
   - License, v. 2.0. If a copy of the MPL was not distributed with this
   - file, You can obtain one at http://mozilla.org/MPL/2.0/. -->
<svg xmlns="http://www.w3.org/2000/svg" width="16" height="16" viewBox="0 0 16 16">
  <path fill="context-fill" d="M4.7,8.1h-2c-0.1,0-0.2,0.1-0.2,0.2s0.1,0.2,0.2,0.2h2c0.1,0,0.2-0.1,0.2-0.2S4.8,8.1,4.7,8.1z M14.2,6.1H13V1H3v5.1H1.9c-1,0-1.8,0.8-1.8,1.8v2.3c0,1,0.8,1.8,1.8,1.8h0.7l-0.7,2.1h12.3L13.5,12h0.7c1,0,1.7-0.8,1.7-1.8V7.9C15.9,6.9,15.2,6.1,14.2,6.1z M14.9,10.2c0,0.4-0.3,0.7-0.7,0.7H1.8c-0.4,0-0.7-0.3-0.7-0.7V7.9c0-0.4,0.4-0.7,0.7-0.7h12.3c0.4,0,0.8,0.3,0.8,0.7L14.9,10.2L14.9,10.2z M3.9,1.9H12v4.2H3.9V1.9z M12.8,13.1H3.2L3.6,12h8.8L12.8,13.1z"/>
</svg>
