<!-- This Source Code Form is subject to the terms of the Mozilla Public
   - License, v. 2.0. If a copy of the MPL was not distributed with this
   - file, You can obtain one at http://mozilla.org/MPL/2.0/. -->
<svg xmlns="http://www.w3.org/2000/svg" width="16" height="16" viewBox="0 0 16 16">
  <path fill="context-fill" d="M 4.679 8.135 L 2.675 8.135 C 2.535 8.135 2.442 8.228 2.442 8.368 C 2.442 8.508 2.535 8.601 2.675 8.601 L 4.679 8.601 C 4.818 8.601 4.912 8.508 4.912 8.368 C 4.912 8.228 4.818 8.135 4.679 8.135 Z M 14.185 6.085 L 13.253 6.085 L 13.253 1.565 L 2.815 1.565 L 2.815 6.085 L 1.883 6.085 C 0.857 6.085 0.065 6.923 0.065 7.902 L 0.065 10.232 C 0.065 11.211 0.857 12.049 1.836 12.049 L 2.488 12.049 L 1.836 14.426 L 14.138 14.426 L 13.486 12.049 L 14.138 12.049 C 15.117 12.049 15.956 11.257 15.956 10.232 L 15.956 7.902 C 16.002 6.923 15.164 6.085 14.185 6.085 Z M 14.931 10.232 C 14.931 10.651 14.604 10.978 14.185 10.978 L 1.836 10.978 C 1.417 10.978 1.09 10.651 1.09 10.232 L 1.09 7.902 C 1.09 7.483 1.463 7.156 1.836 7.156 L 14.185 7.156 C 14.604 7.156 14.931 7.483 14.931 7.902 Z M 3.84 2.59 L 12.181 2.59 L 12.181 6.085 L 3.84 6.085 Z M 12.787 13.354 L 3.234 13.354 L 3.607 12.003 L 12.414 12.003 Z"/>
</svg>
