<?xml version="1.0" encoding="utf-8"?>
<svg width="24px" height="24px" xmlns="http://www.w3.org/2000/svg">
  <path fill="#798697" d="M12,24L12,24C5.4,24,0,18.6,0,12l0,0C0,5.4,5.4,0,12,0l0,0c6.6,0,12,5.4,12,12l0,0C24,18.6,18.6,24,12,24z"/>
  <path d="M 5.7 11.945 C 4.705 10.717 5.321 9.893 5.321 9.893 C 4.796 9.374 5.256 8.74 5.256 8.74 C 5.507 8.415 5.772 8.178 6.027 8.005 C 6.774 6.051 8.716 4.658 10.995 4.658 C 13.406 4.658 15.44 6.216 16.081 8.349 C 16.59 8.565 16.418 9.057 16.27 9.33 C 16.28 9.435 16.286 9.541 16.289 9.647 C 17.194 10.561 16.294 11.957 16.294 11.957 C 16.294 11.957 16.293 11.956 16.291 11.954 L 16.291 13.489 C 16.307 13.939 16.411 15.086 17.016 16.438 C 17.797 18.186 17.151 17.977 16.571 17.834 C 15.992 17.69 14.699 17.13 14.294 17.821 C 13.89 18.512 13.553 19.112 12.61 18.721 C 11.667 18.329 11.223 18.199 11.088 18.199 L 10.905 18.199 C 10.77 18.199 10.326 18.329 9.382 18.721 C 8.439 19.112 8.102 18.512 7.698 17.821 C 7.294 17.13 6.001 17.69 5.421 17.834 C 4.842 17.977 4.195 18.186 4.977 16.438 C 5.558 15.138 5.677 14.027 5.7 13.543 L 5.7 11.945 Z M 8.361 11.246 C 8.68 12.579 9.738 13.776 10.995 13.776 C 12.252 13.776 13.31 12.579 13.629 11.246 C 13.013 12.066 12.063 12.593 10.995 12.593 C 9.928 12.593 8.977 12.066 8.361 11.246 Z M 15.757 8.364 C 15.126 8.15 14.679 8.063 14.542 8.039 C 14.446 7.092 13.667 6.354 12.721 6.354 C 12.045 6.354 11.454 6.731 11.137 7.292 L 10.802 7.292 C 10.487 6.724 9.892 6.341 9.211 6.341 C 8.387 6.341 7.691 6.9 7.461 7.668 C 7.096 7.698 6.279 7.862 5.57 8.734 C 5.57 8.734 5.136 9.303 5.632 9.77 C 5.632 9.77 4.857 10.489 5.811 11.598 C 6.022 11.912 7.127 10.638 10.904 10.638 C 14.681 10.638 16.204 11.625 16.204 11.625 C 16.204 11.625 16.939 10.25 15.871 9.437 C 15.871 9.437 16.52 8.623 15.757 8.364 Z" fill="#FFFFFF" stroke="none" stroke-width="1" fill-rule="evenodd"/>
  <path d="M 12.612 10.388 C 11.992 10.388 11.489 9.646 11.489 8.731 C 11.489 7.816 11.992 7.074 12.612 7.074 C 13.232 7.074 13.734 7.816 13.734 8.731 C 13.734 9.646 13.232 10.388 12.612 10.388" fill="#FFFFFF" stroke="none" stroke-width="1" fill-rule="evenodd"/>
  <path d="M 9.45 7.074 C 10.07 7.074 10.573 7.816 10.573 8.731 C 10.573 9.646 10.07 10.388 9.45 10.388 C 8.83 10.388 8.328 9.646 8.328 8.731 C 8.328 7.816 8.83 7.074 9.45 7.074" fill="#FFFFFF" stroke="none" stroke-width="1" fill-rule="evenodd"/>
  <path d="M 16.529 10.32 C 16.529 10.32 17.45 10.12 18.009 11.365 C 18.569 12.611 18.569 14.426 20.276 15.049 C 21.982 15.672 19.464 14.588 19.632 11.582 C 19.8 8.576 15.943 9.373 15.943 9.373 L 16.529 10.32 Z" fill="#FFFFFF" stroke="none" stroke-width="1" fill-rule="evenodd"/>
  <path d="M 16.61 9.74 C 16.61 9.74 18.905 8.278 20.22 9.876 C 21.535 11.474 22.766 10.661 22.766 10.661 C 22.766 10.661 21.255 10.743 20.779 9.118 C 20.304 7.493 17.617 6.572 15.995 9.226 L 16.61 9.74 Z" fill="#FFFFFF" stroke="none" stroke-width="1" fill-rule="evenodd"/>
</svg>
