<!-- This Source Code Form is subject to the terms of the Mozilla Public
   - License, v. 2.0. If a copy of the MPL was not distributed with this
   - file, You can obtain one at http://mozilla.org/MPL/2.0/. -->
<svg xmlns="http://www.w3.org/2000/svg" width="16" height="16" viewBox="0 0 16 16">
  <path fill="context-fill" d="M 14.6 4.706 C 14.986 4.176 14.986 3.501 14.696 2.971 C 14.407 2.392 13.829 2.055 13.202 2.055 L 6.741 2.055 L 0.329 11.167 C -0.009 11.697 -0.057 12.372 0.232 12.903 C 0.522 13.481 1.1 13.819 1.727 13.819 L 12.768 13.819 L 12.768 12.758 L 8.959 12.758 Z M 7.32 3.115 L 13.202 3.115 C 13.443 3.115 13.636 3.26 13.732 3.453 C 13.829 3.646 13.829 3.887 13.684 4.08 L 10.791 8.226 L 3.752 8.226 Z M 7.609 12.758 L 1.727 12.758 C 1.486 12.758 1.293 12.613 1.197 12.42 C 1.1 12.228 1.1 11.987 1.245 11.794 L 2.932 9.431 L 10.02 9.431 Z M 13.925 13.819 L 15.95 13.819 L 15.95 12.758 L 13.925 12.758 Z"/>
</svg>
