<!-- This Source Code Form is subject to the terms of the Mozilla Public
   - License, v. 2.0. If a copy of the MPL was not distributed with this
   - file, You can obtain one at http://mozilla.org/MPL/2.0/. -->
<svg xmlns="http://www.w3.org/2000/svg" width="16" height="16" viewBox="0 0 16 16">
  <path fill="context-fill" d="M14.5,4.7c0.3-0.5,0.7-1.3,0.2-2.1c-0.3-0.6-0.9-0.8-1.5-0.8H6.9l-6.4,9.7C0,12-0.1,12.7,0.2,13.2c0.3,0.6,0.9,0.7,1.5,0.7h11.1V13H9.2L14.5,4.7z M7.3,3h5.9c0.2,0,0.4,0.1,0.5,0.3s0.1,0.4,0,0.6L11,8.2H4L7.3,3z M7.9,13.1H1.7c-0.2,0-0.4-0.1-0.5-0.3s-0.1-0.4,0-0.6l1.9-2.7h7.1L7.9,13.1z M14,13.9h1.9V13H14V13.9z"/>
</svg>
