<!-- This Source Code Form is subject to the terms of the Mozilla Public
   - License, v. 2.0. If a copy of the MPL was not distributed with this
   - file, You can obtain one at http://mozilla.org/MPL/2.0/. -->
<svg xmlns="http://www.w3.org/2000/svg" width="16" height="16" viewBox="0 0 16 16">
  <path fill="context-fill" d="M 9.675 6.499 L 15.3 6.499 L 15.3 0.876 L 13.96 0.876 L 13.96 3.912 C 12.622 1.947 10.36 0.729 7.891 0.729 C 3.816 0.729 0.513 4.03 0.513 8.106 C 0.513 12.181 3.816 15.485 7.891 15.485 C 10.181 15.485 12.324 14.444 13.723 12.629 C 13.96 12.331 13.901 11.915 13.604 11.677 C 13.306 11.439 12.89 11.499 12.651 11.796 C 11.492 13.284 9.765 14.146 7.861 14.146 C 4.559 14.146 1.851 11.439 1.851 8.106 C 1.851 4.774 4.559 2.066 7.891 2.066 C 10.123 2.066 12.086 3.257 13.156 5.162 L 9.675 5.162 L 9.675 6.499 Z"/>
</svg>
