<!-- This Source Code Form is subject to the terms of the Mozilla Public
   - License, v. 2.0. If a copy of the MPL was not distributed with this
   - file, You can obtain one at http://mozilla.org/MPL/2.0/. -->
<svg xmlns="http://www.w3.org/2000/svg" width="16" height="16" viewBox="0 0 16 16">
  <path fill="context-fill" d="M 7.955 5.297 C 6.481 5.297 5.287 6.491 5.287 7.965 C 5.287 9.438 6.481 10.632 7.955 10.632 C 9.428 10.632 10.622 9.438 10.622 7.965 C 10.622 6.491 9.428 5.297 7.955 5.297 Z M 7.955 9.489 C 7.116 9.489 6.43 8.803 6.43 7.965 C 6.43 7.126 7.116 6.44 7.955 6.44 C 8.793 6.44 9.479 7.126 9.479 7.965 C 9.479 8.803 8.793 9.489 7.955 9.489 Z M 13.823 7.965 C 13.823 7.38 14.077 6.847 14.509 6.466 L 14.788 6.212 L 14.687 5.856 C 14.56 5.45 14.382 5.043 14.204 4.662 L 14.026 4.332 L 13.645 4.357 C 13.061 4.408 12.502 4.205 12.096 3.798 C 11.689 3.392 11.486 2.833 11.537 2.249 L 11.562 1.868 L 11.232 1.69 C 10.851 1.487 10.444 1.309 10.038 1.207 L 9.682 1.106 L 9.428 1.385 C 9.047 1.817 8.514 2.071 7.929 2.071 C 7.345 2.071 6.811 1.817 6.43 1.385 L 6.176 1.106 L 5.821 1.207 C 5.414 1.334 5.008 1.512 4.627 1.69 L 4.296 1.868 L 4.322 2.249 C 4.373 2.833 4.169 3.392 3.763 3.798 C 3.382 4.205 2.823 4.408 2.239 4.357 L 1.858 4.332 L 1.705 4.662 C 1.502 5.043 1.324 5.45 1.223 5.856 L 1.096 6.212 L 1.375 6.466 C 1.807 6.847 2.061 7.38 2.061 7.965 C 2.061 8.549 1.807 9.082 1.375 9.463 L 1.096 9.718 L 1.197 10.073 C 1.324 10.48 1.502 10.886 1.68 11.267 L 1.858 11.597 L 2.239 11.572 C 2.823 11.521 3.382 11.724 3.788 12.131 C 4.195 12.537 4.398 13.096 4.347 13.681 L 4.322 14.062 L 4.652 14.239 C 5.033 14.443 5.44 14.621 5.846 14.748 L 6.202 14.849 L 6.456 14.57 C 6.837 14.138 7.37 13.884 7.955 13.884 C 8.539 13.884 9.072 14.138 9.453 14.57 L 9.708 14.849 L 10.063 14.748 C 10.47 14.621 10.876 14.443 11.257 14.239 L 11.587 14.062 L 11.562 13.681 C 11.511 13.096 11.714 12.537 12.121 12.131 C 12.527 11.724 13.086 11.521 13.671 11.572 L 14.052 11.597 L 14.229 11.267 C 14.433 10.886 14.611 10.48 14.712 10.073 L 14.814 9.718 L 14.534 9.463 C 14.077 9.057 13.823 8.524 13.823 7.965 Z M 13.467 10.022 C 13.417 10.149 13.366 10.276 13.315 10.378 C 12.553 10.429 11.816 10.734 11.283 11.293 C 10.749 11.826 10.419 12.563 10.368 13.325 C 10.241 13.376 10.114 13.427 10.012 13.477 C 9.453 12.969 8.717 12.69 7.929 12.69 C 7.142 12.69 6.43 12.969 5.846 13.477 C 5.719 13.427 5.592 13.376 5.49 13.325 C 5.44 12.563 5.135 11.826 4.576 11.293 C 4.042 10.759 3.306 10.429 2.544 10.378 C 2.493 10.251 2.442 10.124 2.391 10.022 C 2.899 9.463 3.179 8.727 3.179 7.939 C 3.179 7.152 2.925 6.44 2.417 5.882 C 2.467 5.755 2.518 5.627 2.569 5.526 C 3.331 5.475 4.068 5.17 4.601 4.611 C 5.135 4.078 5.465 3.341 5.516 2.579 C 5.643 2.528 5.77 2.477 5.872 2.427 C 5.922 2.477 5.999 2.528 6.049 2.579 L 6.075 2.604 C 6.151 2.655 6.253 2.731 6.329 2.782 C 6.354 2.808 6.38 2.808 6.405 2.833 C 6.481 2.858 6.532 2.909 6.608 2.935 C 6.634 2.96 6.684 2.96 6.71 2.985 C 6.761 3.011 6.837 3.036 6.888 3.062 C 6.913 3.087 6.964 3.087 6.989 3.087 C 7.04 3.112 7.116 3.112 7.167 3.138 C 7.193 3.138 7.243 3.163 7.269 3.163 C 7.345 3.189 7.396 3.189 7.472 3.189 C 7.497 3.189 7.548 3.189 7.574 3.214 C 7.675 3.214 7.777 3.24 7.878 3.24 C 7.98 3.24 8.082 3.24 8.183 3.214 C 8.209 3.214 8.26 3.214 8.285 3.189 C 8.361 3.189 8.437 3.163 8.488 3.163 C 8.615 3.138 8.641 3.138 8.691 3.138 C 8.742 3.112 8.818 3.112 8.869 3.087 C 8.92 3.087 8.945 3.062 8.996 3.036 C 9.047 3.011 9.123 2.985 9.174 2.96 C 9.199 2.935 9.25 2.935 9.276 2.909 C 9.352 2.884 9.403 2.858 9.479 2.808 C 9.504 2.782 9.53 2.782 9.555 2.757 C 9.631 2.706 9.733 2.655 9.809 2.579 L 9.835 2.554 C 9.885 2.503 9.962 2.452 10.012 2.401 C 10.139 2.452 10.266 2.503 10.368 2.554 C 10.419 3.316 10.724 4.052 11.283 4.586 C 11.816 5.119 12.553 5.45 13.315 5.5 C 13.366 5.627 13.417 5.755 13.467 5.856 C 12.959 6.415 12.68 7.152 12.68 7.939 C 12.68 8.727 12.959 9.463 13.467 10.022 Z"/>
</svg>
