<!-- This Source Code Form is subject to the terms of the Mozilla Public
   - License, v. 2.0. If a copy of the MPL was not distributed with this
   - file, You can obtain one at http://mozilla.org/MPL/2.0/. -->
<svg xmlns="http://www.w3.org/2000/svg" width="16" height="16" viewBox="0 0 16 16">
  <path fill="context-fill" d="M8.1,5.4c-1.5,0-2.7,1.2-2.7,2.7s1.2,2.7,2.7,2.7s2.7-1.2,2.7-2.7C10.7,6.6,9.5,5.4,8.1,5.4z M8.1,9.6c-0.8,0-1.5-0.7-1.5-1.5s0.7-1.5,1.5-1.5s1.5,0.7,1.5,1.5C9.6,8.9,8.9,9.6,8.1,9.6z M13.9,8.1c0-0.6,0.3-1.1,0.7-1.5l0.3-0.3L14.8,6c-0.1-0.4-0.3-0.8-0.5-1.2l-0.2-0.3h-0.4c-0.6,0.1-1.1-0.2-1.5-0.6s-0.6-1-0.6-1.5V2l-0.3-0.2c-0.4-0.2-0.8-0.4-1.2-0.5L9.8,1.2L9.5,1.5C9.1,1.9,8.6,2.2,8,2.2S6.9,1.9,6.5,1.5L6.3,1.2L5.9,1.3C5.5,1.4,5.1,1.6,4.7,1.8L4.4,2v0.4C4.5,3,4.2,3.5,3.8,3.9C3.5,4.3,2.9,4.5,2.3,4.5L2,4.4L1.8,4.8C1.6,5.1,1.4,5.5,1.3,6L1.2,6.3l0.3,0.3C1.9,7,2.2,7.5,2.2,8.1S1.9,9.2,1.5,9.6L1.2,9.8l0.1,0.4c0.1,0.4,0.3,0.8,0.5,1.2L2,11.7h0.4c0.6-0.1,1.1,0.2,1.5,0.6c0.4,0.4,0.6,1,0.6,1.6v0.4l0.3,0.2C5.2,14.7,5.6,14.9,6,15l0.4,0.1l0.3-0.3C6.9,14.2,7.5,14,8.1,14s1.1,0.3,1.5,0.7L9.9,15l0.4-0.1c0.4-0.1,0.8-0.3,1.2-0.5l0.3-0.2v-0.4c-0.1-0.6,0.2-1.1,0.6-1.6c0.4-0.4,1-0.6,1.5-0.6h0.4l0.2-0.3c0.2-0.4,0.4-0.8,0.5-1.2l0.1-0.4l-0.3-0.3C14.2,9.2,13.9,8.6,13.9,8.1z M13.6,10.1c-0.1,0.1-0.1,0.3-0.2,0.4c-0.8,0.1-1.5,0.4-2,0.9s-0.9,1.3-0.9,2c-0.1,0.1-0.3,0.1-0.4,0.2c-0.6-0.5-1.3-0.8-2.1-0.8c-0.8,0-1.5,0.3-2.1,0.8c-0.1-0.1-0.3-0.1-0.4-0.2c0-0.8-0.4-1.5-0.9-2s-1.3-0.9-2-0.9c-0.1-0.1-0.1-0.3-0.2-0.4C3,9.6,3.3,8.8,3.3,8c0-0.7-0.3-1.5-0.8-2c0-0.1,0.1-0.3,0.2-0.4c0.8-0.1,1.5-0.4,2-0.9s0.9-1.3,0.9-2C5.7,2.6,5.9,2.6,6,2.5c0,0,1,0.8,2,0.8c1,0,2.1-0.9,2.2-0.9c0.1,0.1,0.3,0.1,0.4,0.2c0.1,0.8,0.4,1.5,0.9,2s1.3,0.9,2,0.9c0.1,0.1,0.1,0.3,0.2,0.4c-0.5,0.6-0.8,1.3-0.8,2.1C12.8,8.8,13.1,9.6,13.6,10.1z"/>
</svg>
