<!-- This Source Code Form is subject to the terms of the Mozilla Public
   - License, v. 2.0. If a copy of the MPL was not distributed with this
   - file, You can obtain one at http://mozilla.org/MPL/2.0/. -->
<svg xmlns="http://www.w3.org/2000/svg" width="16" height="16" viewBox="0 0 16 16">
  <path fill="context-fill" d="M11.7,10c-0.6,0-1.2,0.3-1.6,0.7L6.5,8.8C6.6,8.5,6.7,8.3,6.7,8c0-0.2,0-0.5-0.1-0.7l3.7-2c0.4,0.3,0.9,0.6,1.4,0.6c1.2,0,2.2-1,2.2-2.2s-0.9-2.2-2.1-2.2c-1.2,0-2.2,1-2.2,2.2c0,0.3,0.1,0.5,0.1,0.7L6,6.3C5.6,6,5.1,5.8,4.5,5.8C3.4,5.8,2.4,6.8,2.4,8c0,1.2,1,2.2,2.2,2.2c0.5,0,1-0.2,1.4-0.5l3.7,2c-0.1,0.2-0.1,0.4-0.1,0.5c0,1.2,1,2.2,2.2,2.2s2.2-1,2.2-2.2S12.9,10,11.7,10z M11.7,2.6c0.6,0,1,0.5,1,1s-0.5,1.1-1,1.1s-1-0.5-1-1.1C10.7,3.1,11.2,2.6,11.7,2.6z M4.5,9.1c-0.6,0-1-0.5-1-1c0-0.6,0.5-1.2,1-1.2c0.6,0,1,0.6,1,1.2C5.6,8.6,5.1,9.1,4.5,9.1z M11.7,13.2c-0.6,0-1-0.5-1-1.1c0-0.6,0.5-1,1-1s1,0.5,1,1C12.8,12.7,12.3,13.2,11.7,13.2z"/>
</svg>
