<!-- This Source Code Form is subject to the terms of the Mozilla Public
   - License, v. 2.0. If a copy of the MPL was not distributed with this
   - file, You can obtain one at http://mozilla.org/MPL/2.0/. -->
<svg xmlns="http://www.w3.org/2000/svg" width="16" height="16" viewBox="0 0 16 16">
  <path fill="context-fill" d="M 10.588 10.136 C 10.002 10.136 9.464 10.381 9.072 10.772 L 6.115 8.84 C 6.213 8.596 6.262 8.353 6.262 8.084 C 6.262 7.864 6.237 7.668 6.164 7.472 L 9.17 5.516 C 9.537 5.834 10.026 6.054 10.564 6.054 C 11.738 6.054 12.666 5.101 12.666 3.928 C 12.666 2.755 11.762 1.825 10.588 1.825 C 9.415 1.825 8.486 2.779 8.486 3.928 C 8.486 4.173 8.535 4.393 8.608 4.587 L 5.626 6.543 C 5.235 6.201 4.721 5.981 4.159 5.981 C 3.011 5.981 2.057 6.934 2.057 8.108 C 2.057 9.281 3.011 10.21 4.159 10.21 C 4.673 10.21 5.137 10.039 5.479 9.745 L 8.535 11.75 C 8.486 11.921 8.461 12.092 8.461 12.263 C 8.461 13.436 9.415 14.39 10.564 14.39 C 11.713 14.39 12.666 13.436 12.666 12.263 C 12.666 11.09 11.762 10.136 10.588 10.136 Z M 10.588 2.926 C 11.151 2.926 11.591 3.39 11.591 3.928 C 11.591 4.466 11.126 4.954 10.588 4.954 C 10.05 4.954 9.586 4.491 9.586 3.928 C 9.586 3.366 10.05 2.926 10.588 2.926 Z M 4.159 9.109 C 3.598 9.109 3.158 8.645 3.158 8.108 C 3.158 7.57 3.622 7.081 4.159 7.081 C 4.697 7.081 5.162 7.546 5.162 8.108 C 5.162 8.669 4.721 9.109 4.159 9.109 Z M 10.588 13.265 C 10.026 13.265 9.586 12.8 9.586 12.239 C 9.586 11.677 10.05 11.237 10.588 11.237 C 11.126 11.237 11.591 11.701 11.591 12.239 C 11.591 12.776 11.151 13.265 10.588 13.265 Z"/>
</svg>
