<!-- This Source Code Form is subject to the terms of the Mozilla Public
   - License, v. 2.0. If a copy of the MPL was not distributed with this
   - file, You can obtain one at http://mozilla.org/MPL/2.0/. -->
<svg xmlns="http://www.w3.org/2000/svg" width="16" height="16" viewBox="0 0 16 16">
  <path fill="context-fill" d="M15.9,14H0.1v-5h2.3c0.3,0,0.5-0.2,0.5-0.5v-5C2.9,2.7,3.6,2,4.5,2h7c0.9,0,1.6,0.7,1.6,1.6v5c0,0.3,0.2,0.5,0.5,0.5h2.3V14z M1.3,12.9h13.5v-2.7H14c-0.9,0-2.1-0.7-2.1-1.6V3.6c0-0.3-0.2-0.5-0.5-0.5h-7C4.2,3.1,4,3.3,4,3.6v5c0,0.9-1.2,1.6-2.1,1.6H1.3V12.9z"/>
</svg>
