<!-- This Source Code Form is subject to the terms of the Mozilla Public
   - License, v. 2.0. If a copy of the MPL was not distributed with this
   - file, You can obtain one at http://mozilla.org/MPL/2.0/. -->
<svg xmlns="http://www.w3.org/2000/svg" width="16" height="16" viewBox="0 0 16 16">
  <path fill="context-fill" d="M 7.984375 0.33984375 L 7.1113281 1.2128906 L 8.5039062 2.6035156 C 6.9211094 2.439778 5.3101715 2.9867034 4.1367188 4.1601562 C 2.4993428 5.7975322 2.0898942 8.3068496 3.0996094 10.380859 C 3.2087678 10.599176 3.4281676 10.736328 3.6464844 10.736328 C 3.7283534 10.736328 3.8361 10.708931 3.9179688 10.681641 C 4.2181543 10.517904 4.3551439 10.163467 4.1914062 9.8632812 C 3.4272974 8.2259052 3.7271544 6.2885247 5.0097656 5.0332031 C 6.0194808 4.0234879 7.4929419 3.6138769 8.8574219 3.9140625 L 7.1386719 5.6328125 L 8.0117188 6.5058594 L 11.095703 3.421875 L 7.984375 0.33984375 z M 12.283203 5.2207031 C 12.205172 5.2249671 12.125827 5.2451849 12.050781 5.2792969 C 11.750595 5.4430345 11.640896 5.7974706 11.777344 6.0976562 C 12.623321 7.7077427 12.323573 9.6725211 11.013672 10.982422 C 10.003957 11.992137 8.5304956 12.401747 7.1660156 12.101562 L 8.8847656 10.380859 L 8.0117188 9.5078125 L 4.9550781 12.591797 L 8.0117188 15.648438 L 8.8847656 14.775391 L 7.4941406 13.382812 C 7.6851678 13.410103 7.8753249 13.410156 8.0390625 13.410156 C 9.4581217 13.437446 10.849714 12.865184 11.886719 11.855469 C 13.551385 10.190804 13.960725 7.6520804 12.869141 5.5507812 C 12.746337 5.325642 12.517297 5.2079111 12.283203 5.2207031 z "/>
</svg>
