<!-- This Source Code Form is subject to the terms of the Mozilla Public
   - License, v. 2.0. If a copy of the MPL was not distributed with this
   - file, You can obtain one at http://mozilla.org/MPL/2.0/. -->
<svg xmlns="http://www.w3.org/2000/svg" width="16" height="16" viewBox="0 0 16 16">
  <path fill="context-fill" d="M 31.765 28.097 L 0.233 28.097 L 0.233 18.18 L 3.895 18.18 C 4.402 18.18 4.81 17.772 4.81 17.264 L 4.81 7.195 C 4.81 5.465 6.233 4.042 7.963 4.042 L 23.984 4.042 C 25.763 4.042 27.188 5.465 27.188 7.195 L 27.188 17.264 C 27.188 17.772 27.594 18.18 28.103 18.18 L 31.765 18.18 L 31.765 28.097 Z M 2.522 25.808 L 29.476 25.808 L 29.476 20.469 L 28.052 20.469 C 26.323 20.469 24.898 19.044 24.898 17.314 L 24.898 7.195 C 24.898 6.686 24.491 6.279 23.984 6.279 L 7.963 6.279 C 7.454 6.279 7.047 6.686 7.047 7.195 L 7.047 17.264 C 7.047 18.993 5.623 20.417 3.895 20.417 L 2.522 20.417 L 2.522 25.808 Z"/>
</svg>
