<!-- This Source Code Form is subject to the terms of the Mozilla Public
   - License, v. 2.0. If a copy of the MPL was not distributed with this
   - file, You can obtain one at http://mozilla.org/MPL/2.0/. -->
<svg xmlns="http://www.w3.org/2000/svg" width="16" height="16" viewBox="0 0 16 16">
  <path fill="context-fill" d="M7.3,2.1c-0.7,0-1.4,0.1-2,0.4c-0.1,0-0.1,0.1-0.2,0.1L6,3.5c0.4-0.2,0.9-0.2,1.3-0.2c2.3,0,4.1,1.8,4.1,4.1s-1.8,4.1-4.1,4.1c-2.3,0-4.1-1.9-4.1-4.1c0-0.4,0.1-0.8,0.2-1.2L2.5,5.3c0,0.1-0.1,0.2-0.1,0.2C2.2,6.1,2.1,6.7,2.1,7.3c0,2.9,2.3,5.3,5.3,5.3s5.3-2.3,5.3-5.3C12.6,4.4,10.2,2.1,7.3,2.1z M7.5,6.4L5.1,4L4.6,3.5L2.5,1.4L1.3,2.6l5,5L7.5,6.4z M8,6.9L6.8,8.1l0,0l2.3,1L8,6.9L8,6.9z M14.9,7.4c0-2.1-0.8-4-2.3-5.5c-0.2-0.2-0.6-0.2-0.8,0c-0.2,0.2-0.2,0.6,0,0.8c1.3,1.2,2,2.9,2,4.6c0,3.5-2.9,6.4-6.4,6.4c-1.6,0-3.1-0.6-4.3-1.7c-0.2-0.2-0.6-0.2-0.8,0.1c-0.2,0.2-0.2,0.6,0.1,0.8c1.4,1.3,3.2,1.9,5,1.9C11.6,14.9,14.9,11.6,14.9,7.4z"/>
</svg>
