<!-- This Source Code Form is subject to the terms of the Mozilla Public
   - License, v. 2.0. If a copy of the MPL was not distributed with this
   - file, You can obtain one at http://mozilla.org/MPL/2.0/. -->
<svg xmlns="http://www.w3.org/2000/svg" width="16" height="16" viewBox="0 0 16 16">
  <path fill="context-fill" d="M 7.601 2.401 C 6.903 2.401 6.229 2.525 5.606 2.8 C 5.556 2.825 5.506 2.85 5.456 2.874 L 6.33 3.748 C 6.754 3.599 7.176 3.523 7.626 3.523 C 9.845 3.523 11.642 5.318 11.642 7.538 C 11.642 9.758 9.845 11.552 7.626 11.552 C 5.406 11.552 3.586 9.732 3.586 7.514 C 3.586 7.115 3.66 6.714 3.761 6.341 L 2.888 5.469 C 2.862 5.543 2.813 5.618 2.788 5.692 C 2.564 6.265 2.464 6.889 2.464 7.514 C 2.464 10.357 4.758 12.65 7.601 12.65 C 10.444 12.65 12.738 10.357 12.738 7.514 C 12.738 4.67 10.418 2.401 7.601 2.401 Z M 7.725 6.566 L 5.382 4.196 L 4.957 3.773 L 2.862 1.678 L 1.666 2.874 L 6.554 7.737 Z M 8.273 7.089 L 7.077 8.286 L 7.103 8.311 L 9.321 9.334 L 8.298 7.115 Z M 14.933 7.513 C 14.933 5.468 14.109 3.571 12.638 2.175 C 12.414 1.975 12.065 1.975 11.84 2.202 C 11.64 2.425 11.64 2.774 11.865 2.998 C 13.111 4.196 13.811 5.791 13.811 7.513 C 13.811 10.93 11.017 13.722 7.601 13.722 C 6.055 13.722 4.583 13.148 3.436 12.1 C 3.212 11.9 2.838 11.928 2.638 12.15 C 2.438 12.375 2.464 12.748 2.688 12.949 C 4.035 14.171 5.781 14.844 7.601 14.844 C 11.64 14.844 14.933 11.578 14.933 7.513 Z"/>
</svg>
