<svg xmlns="http://www.w3.org/2000/svg" viewBox="0 0 24 24">
  <path fill="context-fill" fill-opacity="context-fill-opacity" d="M 11.9 15.7 L 3.9 15.7 C 2 15.7 0.4 14 0.4 12 L 0.4 7.3 C 0.4 5.3 2 3.6 3.9 3.6 L 11.9 3.6 C 12.6 3.6 13.1 3.8 13.6 4.3 C 14 4.7 14.3 5.4 14.3 6.1 L 14.3 6.3 L 3.9 6.3 C 3.4 6.3 3 6.8 3 7.3 L 3 12 C 3 12.5 3.4 13 3.9 13 C 14.2 13 14.2 13 14.2 13 L 14.4 13.1 L 14.4 13.2 C 14.3 14.6 13.3 15.7 11.9 15.7 Z M 23.6 12 L 23.6 16.7 C 23.6 18.7 22 20.4 20.1 20.4 L 12.1 20.4 C 11.4 20.4 10.9 20.2 10.4 19.7 C 10 19.3 9.7 18.6 9.7 17.9 L 9.7 17.7 L 20.2 17.7 C 20.7 17.7 21.1 17.2 21.1 16.7 L 21.1 12 C 21.1 11.4 20.7 11 20.2 11 C 9.9 11 9.7 11 9.7 11 L 9.7 10.8 C 9.7 9.4 10.8 8.3 12.1 8.3 L 20.1 8.3 C 22 8.3 23.6 9.9 23.6 12 Z"/>
</svg>
