<?xml version="1.0" encoding="utf-8"?>
<!-- This Source Code Form is subject to the terms of the Mozilla Public
   - License, v. 2.0. If a copy of the MPL was not distributed with this
   - file, You can obtain one at http://mozilla.org/MPL/2.0/. -->
<svg xmlns="http://www.w3.org/2000/svg" viewBox="0 0 24 24">
  <style>
    use:not(:target) {
      display: none;
    }
    use {
      fill: #fbfbfb;
      stroke: rgba(0,0,0,0.4);
      stroke-width: .5px;
    }
    use[id$="-native"] {
      fill: ThreeDHighlight;
    }
  </style>
  <defs>
    <g id="general-shape">
      <path d="M18.97,3H5.03C3.914,3,3,3.914,3,5.03v13.94C3,20.086,3.914,21,5.03,21H18.97c1.117,0,2.03-0.914,2.03-2.03 V5.03C21,3.914,20.086,3,18.97,3z M5.35,19.326c-0.404,0-0.731-0.327-0.731-0.731c0-0.404,0.327-0.731,0.731-0.731 c0.404,0,0.731,0.327,0.731,0.731C6.081,19,5.754,19.326,5.35,19.326z M5.35,6.168c-0.403,0-0.731-0.328-0.731-0.731 c0-0.404,0.328-0.731,0.731-0.731c0.403,0,0.731,0.327,0.731,0.731C6.081,5.84,5.753,6.168,5.35,6.168z M15.243,14.035 c0,0.229-0.186,0.416-0.414,0.416c-0.229,0-0.415,0.186-0.415,0.414v3.347c0,0.228-0.185,0.384-0.414,0.384l-4.141,0.03 c-0.227,0-0.414-0.186-0.414-0.414v-3.347c0-0.228-0.185-0.414-0.414-0.414c-0.227,0-0.414-0.187-0.414-0.416V6.582 c0-0.229,0.187-0.414,0.414-0.414h5.798c0.228,0,0.414,0.185,0.414,0.414V14.035z M18.509,19.326c-0.404,0-0.731-0.327-0.731-0.731 c0-0.404,0.327-0.731,0.731-0.731c0.404,0,0.731,0.327,0.731,0.731C19.24,19,18.913,19.326,18.509,19.326z M18.509,6.168 c-0.404,0-0.731-0.328-0.731-0.731c0-0.404,0.327-0.731,0.731-0.731c0.404,0,0.731,0.327,0.731,0.731 C19.24,5.84,18.913,6.168,18.509,6.168z"/>
      <path d="M12.757,7.824h-1.657c-0.456,0-0.828,0.373-0.828,0.828v8.282c0,0.456,0.373,0.828,0.828,0.828h1.657 c0.456,0,0.828-0.373,0.828-0.828V8.652C13.586,8.196,13.213,7.824,12.757,7.824z"/>
    </g>
    <g id="security-shape">
      <path d="M18.909,9.783h-0.863V8.086C18.046,4.725,15.339,2,12,2 C8.661,2,5.954,4.725,5.954,8.086v1.697H5.091c-0.955,0-1.728,0.779-1.728,1.739v8.738c0,0.961,0.773,1.74,1.728,1.74h13.818 c0.954,0,1.728-0.779,1.728-1.74v-8.738C20.637,10.562,19.863,9.783,18.909,9.783z M8.545,8.086c0-1.92,1.547-3.478,3.455-3.478 c1.908,0,3.455,1.557,3.455,3.478v1.697h-6.91V8.086z M5.181,16.092l-0.909-1.2v-2.284l2.728,3.483H5.181z M8.818,16.092 l-2.773-3.657h1.727l2.864,3.657H8.818z M12,16.092l-2.773-3.657h1.727l2.864,3.657H12z M15.637,16.092l-2.773-3.657h1.727 l2.864,3.657H15.637z M19.728,16.092h-0.455l-2.773-3.657h1.727l1.501,1.916V16.092z"/>
    </g>
    <g id="sync-shape">
      <path style="fill:#F1F1F1;" d="M3.2,22h3.3h10.8h3.3c0.5,0,0.9-0.4,0.9-0.9V20c0-1-0.5-1.9-1.2-2.5c-2.3-1.8-4.6-2.9-5.1-3.1
        c-0.1,0-0.1-0.1-0.1-0.2v-1.6c0.3-0.5,0.4-1,0.5-1.5c0.2,0.1,0.6,0.1,1-1.3c0.3-1.1,0.1-1.5-0.2-1.6c0.9-4.4-1.1-4.5-1.1-4.5
        S15,3.1,14.1,2.6c-0.5-0.3-1.3-0.6-2.3-0.5c-0.4,0-0.7,0.1-1,0.2c-0.4,0.1-0.7,0.3-1,0.5C9.4,3.1,9.1,3.3,8.7,3.7
        c-0.5,0.5-1,1.2-1.1,2C7.4,6.4,7.4,7.1,7.7,7.9C7.3,7.8,6.9,8,7.3,9.5c0.3,1.1,0.6,1.4,0.8,1.4c0.1,0.6,0.3,1.3,0.7,1.9v1.4
        c0,0.1,0,0.1-0.1,0.2c-0.5,0.2-2.8,1.4-5.1,3.1C2.8,18.1,2.3,19,2.3,20v1.1C2.3,21.6,2.7,22,3.2,22"/>
    </g>
    <g id="search-shape">
      <path d="M20.6,19.6l-4.4-4.5c2.4-2.9,2.4-7.1,0.2-10c-2.3-3-6.3-3.9-9.6-2.3c-3.3,1.6-5.1,5.3-4.3,9 c0.8,3.7,4,6.3,7.7,6.3c1.5,0,3-0.4,4.3-1.3l4.5,4.6c0.3,0.3,0.8,0.4,1.2,0.3c0.4-0.1,0.7-0.4,0.9-0.9S20.9,19.9,20.6,19.6z M10.1,16c-3.3,0-6-2.7-6-6.1c0-3.4,2.7-6.1,6-6.1c3.3,0,6,2.7,6,6.1C16.1,13.3,13.4,16,10.1,16z"/>
      <path d="M10.1,5.3c-2.5,0-4.6,2.1-4.6,4.7c0,1.2,0.5,2.4,1.4,3.3c0.9,0.9,2,1.4,3.3,1.4c2.5,0,4.6-2.1,4.6-4.7 C14.7,7.4,12.7,5.3,10.1,5.3z M10,7.9c-1,0-1.8,0.8-1.8,1.8c0,0.4-0.3,0.8-0.8,0.8s-0.8-0.4-0.8-0.8c0-1.9,1.5-3.4,3.3-3.4h0 c0.4,0,0.8,0.4,0.8,0.8S10.4,7.9,10,7.9z"/>
    </g>
    <g id="connect-shape">
      <rect id="Rectangle" fill="#D8D8D8" opacity="0" x="0.966546474" y="0.251702724" width="24" height="24"></rect>
      <path d="M4.62758413,7.43652681 L4.62758413,12.3179085 C4.62758413,12.7694064 4.98060343,13.1227947 5.42252628,13.1227947 L15.2564601,13.1227947 C15.6893978,13.1227947 16.0514022,12.7602779 16.0514022,12.3179085 L16.0514022,7.43652681 C16.0514022,6.98502891 15.6983829,6.63164062 15.2564601,6.63164062 L5.42252628,6.63164062 C4.9895886,6.63164062 4.62758413,6.99415738 4.62758413,7.43652681 Z M2.42758413,7.43652681 C2.42758413,5.77697399 3.77671397,4.43164062 5.42252628,4.43164062 L15.2564601,4.43164062 C16.910521,4.43164062 18.2514022,5.76710989 18.2514022,7.43652681 L18.2514022,12.3179085 C18.2514022,13.9774613 16.9022724,15.3227947 15.2564601,15.3227947 L5.42252628,15.3227947 C3.76846541,15.3227947 2.42758413,13.9873254 2.42758413,12.3179085 L2.42758413,7.43652681 Z" id="Shape" stroke-opacity="0.387709466" stroke="#000000" stroke-width="0.5" fill="#FFFFFF" fill-rule="nonzero"></path>
      <path d="M9.98570165,11.7332857 L9.98570165,16.6146674 C9.98570165,17.0661653 10.3387209,17.4195536 10.7806438,17.4195536 L20.6145776,17.4195536 C21.0475153,17.4195536 21.4095198,17.0570368 21.4095198,16.6146674 L21.4095198,11.7332857 C21.4095198,11.2817878 21.0565005,10.9283995 20.6145776,10.9283995 L10.7806438,10.9283995 C10.3477061,10.9283995 9.98570165,11.2909163 9.98570165,11.7332857 Z M7.78570165,11.7332857 C7.78570165,10.0737329 9.13483148,8.72839954 10.7806438,8.72839954 L20.6145776,8.72839954 C22.2686385,8.72839954 23.6095198,10.0638688 23.6095198,11.7332857 L23.6095198,16.6146674 C23.6095198,18.2742202 22.2603899,19.6195536 20.6145776,19.6195536 L10.7806438,19.6195536 C9.12658292,19.6195536 7.78570165,18.2840843 7.78570165,16.6146674 L7.78570165,11.7332857 Z" id="Shape" stroke-opacity="0.387709466" stroke="#000000" stroke-width="0.5" fill="#FFFFFF" fill-rule="nonzero"></path>
    </g>
  </defs>
  <use id="general" href="#general-shape"/>
  <use id="general-native" href="#general-shape"/>
  <use id="security" href="#security-shape"/>
  <use id="security-native" href="#security-shape"/>
  <use id="sync" href="#sync-shape"/>
  <use id="sync-native" href="#sync-shape"/>
  <use id="search" href="#search-shape"/>
  <use id="search-native" href="#search-shape"/>
  <use id="connect" href="#connect-shape"/>
  <use id="connect-native" href="#connect-shape"/>
</svg>
