<?xml version="1.0" encoding="utf-8"?>
<!-- Generator: Adobe Illustrator 19.1.0, SVG Export Plug-In . SVG Version: 6.00 Build 0)  -->
<svg version="1.1" id="aboutWordmark" xmlns="http://www.w3.org/2000/svg" xmlns:xlink="http://www.w3.org/1999/xlink" x="0px"
	 y="0px" viewBox="-67.5 189.4 129.1 33.3" style="enable-background:new -67.5 189.4 129.1 33.3;" xml:space="preserve">
<style type="text/css">
	.st0{fill:#55575C;}
</style>
<g>
	<path id="Path" sketch:type="MSShapeGroup" class="st0" d="M32.7,208.9c0.3-1,0.3-2.1,0.3-3.2c0-9-6.9-16.2-16.6-16.2
		s-16.7,7.3-16.7,16.2s6.9,16.2,16.6,16.2c0.6,0,1.3,0,1.9-0.1c-0.7-2.1-1.4-4.2-2.1-6.2c-5.4-0.2-9.2-4.6-9.2-9.8v-0.1
		c0-5.4,3.8-9.7,9.4-9.7s9.4,4.4,9.5,9.7C28.1,206.7,30.4,207.8,32.7,208.9z"/>
	<path id="Path_1_" sketch:type="MSShapeGroup" class="st0" d="M-10.7,221.3h6.9v-31.4h-6.9C-10.7,189.9-10.7,221.3-10.7,221.3z"/>
	<path id="Path_2_" sketch:type="MSShapeGroup" class="st0" d="M-35.9,221.3h22.5V215h-15.6v-25H-36v31.3H-35.9z"/>
	<path id="Path_3_" sketch:type="MSShapeGroup" class="st0" d="M-51.5,221.9c6.1,0,9.6-2.1,12.8-5.5l-4.4-4.4
		c-2.5,2.2-4.6,3.7-8.2,3.7c-5.4,0-9.1-4.4-9.1-9.8v-0.1c0-5.4,3.8-9.7,9.1-9.7c3.2,0,5.5,1.4,8,3.5l4.4-5
		c-2.9-2.9-6.4-4.9-12.4-4.9c-9.6,0-16.3,7.3-16.3,16.2v0.1C-67.5,214.7-60.7,221.9-51.5,221.9L-51.5,221.9z"/>
	<path id="Default-2" sketch:type="MSShapeGroup" class="st0" d="M21.9,222.5l3.1-6.3l6.6,6.4c0,0,2.2-1.9,1.8-2.4
		c-2-2.2-6.6-6.4-6.6-6.4l5.5-1.9l-16.8-8.1L21.9,222.5z"/>
	<path id="Path_4_" sketch:type="MSShapeGroup" class="st0" d="M35.5,221.3h26.1v-6H44.3l17.2-20.1V190H36v6.1h16.7l-17.2,20.1
		L35.5,221.3L35.5,221.3z"/>
</g>
</svg>
