<?xml version="1.0" encoding="utf-8"?>

<svg version="1.1" id="aboutWordmark" xmlns="http://www.w3.org/2000/svg" xmlns:xlink="http://www.w3.org/1999/xlink" x="0px" y="0px" width="270px" height="48px" viewBox="0 0 270 48" xml:space="preserve">
            <path fill="#fff" d="M13.832,37.432 C18.692,37.432 21.572,35.704 24.164,32.932 L20.636,29.368 C18.656,31.168 16.892,32.32 14.012,32.32 C9.692,32.32 6.704,28.72 6.704,24.4 L6.704,24.328 C6.704,20.008 9.764,16.48 14.012,16.48 C16.532,16.48 18.512,17.56 20.456,19.324 L23.984,15.256 C21.644,12.952 18.8,11.368 14.048,11.368 C6.308,11.368 0.908,17.236 0.908,24.4 L0.908,24.472 C0.908,31.708 6.416,37.432 13.832,37.432 L13.832,37.432 Z M45,31.96 L32.436,31.96 L32.436,11.8 L26.892,11.8 L26.892,37 L45,37 L45,31.96 Z M47.7279999,37 L53.2719999,37 L53.2719999,11.8 L47.7279999,11.8 L47.7279999,37 Z M82.5679999,26.92 C82.7479999,26.092 82.8559999,25.264 82.8559999,24.4 C82.8559999,17.38 77.4199999,11.728 69.9319999,11.728 C62.4079999,11.728 56.9359999,17.416 56.9359999,24.4 C56.9359999,31.42 62.3359999,37.036 69.8599999,37.036 C70.3279999,37.036 70.7959999,36.964 71.2999999,36.928 C70.7239999,35.308 70.1479999,33.616 69.6079999,32.032 C65.3959999,31.924 62.5159999,28.468 62.5159999,24.4 L62.5159999,24.328 C62.5159999,20.116 65.4679999,16.66 69.8599999,16.66 C74.1439999,16.66 77.1679999,20.116 77.2399999,24.328 C79.0399999,25.156 80.7679999,26.02 82.5679999,26.92 L82.5679999,26.92 Z M77.7799999,31.024 L82.0639999,29.584 L68.8879999,23.14 L73.8199999,37.756 L76.3039999,32.86 L81.4879999,37.828 L82.8559999,35.956 L77.7799999,31.024 Z M86.4479998,11.8 L86.4479998,16.66 L99.8759998,16.66 L86.0159998,32.788 L86.0159998,37 L107.004,37 L107.004,32.14 L93.1439998,32.14 L107.004,16.012 L107.004,11.8 L86.4479998,11.8 Z M110.812,37 L116.356,37 L116.356,11.8 L110.812,11.8 L110.812,37 Z M139.064,31.96 L126.5,31.96 L126.5,11.8 L120.956,11.8 L120.956,37 L139.064,37 L139.064,31.96 Z M159.648,31.96 L147.084,31.96 L147.084,11.8 L141.54,11.8 L141.54,37 L159.648,37 L159.648,31.96 Z M180.88,37 L186.676,37 L175.876,11.62 L170.764,11.62 L159.964,37 L165.616,37 L167.92,31.348 L178.576,31.348 L180.88,37 Z M176.596,26.452 L169.9,26.452 L173.248,18.28 L176.596,26.452 Z M198.504,37 L209.7,37 C215.208,37 218.844,34.444 218.844,30.124 L218.844,30.052 C218.844,26.596 216.432,24.868 213.444,23.968 C215.424,23.104 217.44,21.412 217.44,18.136 L217.44,18.064 C217.44,16.444 216.864,15.112 215.82,14.032 C214.38,12.628 212.112,11.8 209.232,11.8 L198.504,11.8 L198.504,37 Z M214.56,18.532 C214.56,21.484 212.184,23.032 208.764,23.032 L201.312,23.032 L201.312,14.356 L208.98,14.356 C212.58,14.356 214.56,15.976 214.56,18.46 L214.56,18.532 Z M215.964,29.872 L215.964,29.944 C215.964,32.752 213.588,34.444 209.772,34.444 L201.312,34.444 L201.312,25.552 L209.268,25.552 C213.66,25.552 215.964,27.136 215.964,29.872 L215.964,29.872 Z M230.463999,37.432 C233.991999,37.432 236.259999,36.028 238.131999,33.94 L236.403999,32.392 C234.891999,33.976 233.091999,35.02 230.535999,35.02 C227.223999,35.02 224.379999,32.752 223.983999,28.72 L238.743999,28.72 C238.779999,28.396 238.779999,28.18 238.779999,27.82 C238.779999,22.384 235.611999,17.992 230.103999,17.992 C224.955999,17.992 221.175999,22.312 221.175999,27.676 L221.175999,27.748 C221.175999,33.508 225.351999,37.432 230.463999,37.432 L230.463999,37.432 Z M223.983999,26.668 C224.343999,23.032 226.791999,20.332 230.031999,20.332 C233.739999,20.332 235.683999,23.284 235.971999,26.668 L223.983999,26.668 Z M248.167999,37.324 C249.499999,37.324 250.543999,37.036 251.515999,36.532 L251.515999,34.156 C250.543999,34.624 249.751999,34.804 248.815999,34.804 C246.943999,34.804 245.683999,33.976 245.683999,31.708 L245.683999,20.836 L251.587999,20.836 L251.587999,18.388 L245.683999,18.388 L245.683999,12.772 L242.911999,12.772 L242.911999,18.388 L240.319999,18.388 L240.319999,20.836 L242.911999,20.836 L242.911999,32.068 C242.911999,35.848 245.179999,37.324 248.167999,37.324 L248.167999,37.324 Z M260.327999,37.396 C263.603999,37.396 265.763999,35.884 267.059999,34.192 L267.059999,37 L269.723999,37 L269.723999,25.624 C269.723999,23.248 269.075999,21.448 267.815999,20.188 C266.447999,18.82 264.431999,18.136 261.803999,18.136 C259.103999,18.136 257.087999,18.748 255.035999,19.684 L255.863999,21.952 C257.591999,21.16 259.319999,20.584 261.515999,20.584 C265.007999,20.584 267.059999,22.312 267.059999,25.66 L267.059999,26.308 C265.403999,25.84 263.711999,25.516 261.335999,25.516 C256.619999,25.516 253.379999,27.604 253.379999,31.528 L253.379999,31.6 C253.379999,35.416 256.871999,37.396 260.327999,37.396 L260.327999,37.396 Z M260.867999,35.2 C258.347999,35.2 256.187999,33.832 256.187999,31.492 L256.187999,31.42 C256.187999,29.08 258.131999,27.568 261.623999,27.568 C263.891999,27.568 265.727999,27.964 267.095999,28.36 L267.095999,30.16 C267.095999,33.112 264.287999,35.2 260.867999,35.2 L260.867999,35.2 Z" id="CLIQZILLA-Beta" sketch:type="MSShapeGroup"></path>
</svg>