<?xml version="1.0" encoding="utf-8"?>
<svg xmlns="http://www.w3.org/2000/svg" width="129px" height="33px" viewBox="0 0 129 33">
  <path fill="#55575c" d="m 83.870476,0 c -9.685043,0 -16.675419,7.2792 -16.675419,16.15242 0,8.87322 6.89092,16.15047 16.575963,16.15047 0.599075,0 1.296436,3.9e-4 1.89551,-0.0993 -0.69892,-2.09368 -1.397451,-4.18852 -2.096372,-6.18251 -5.391673,-0.19939 -9.185033,-4.58499 -9.185033,-9.76934 v -0.0993 c 0,-5.38375 3.79453,-9.67198 9.385895,-9.67198 5.591365,0 9.385505,4.38793 9.485351,9.67198 2.296454,0.99699 4.591348,2.0929 6.887799,3.18959 0.29954,-0.99699 0.30032,-2.0929 0.30032,-3.18959 C 100.44449,7.17952 93.555519,2e-5 83.870476,2e-5 Z M 16.273696,0.20056 C 6.688499,0.20056 0,7.47782 0,16.35104 v 0.0993 c 0.09985,8.67382 6.88897,15.85254 16.074785,15.85254 6.090594,0 9.585977,-2.09368 12.781042,-5.48345 l -4.393605,-4.38714 c -2.496145,2.19338 -4.594077,3.69003 -8.188526,3.69003 -5.391673,0 -9.085578,-4.38754 -9.085578,-9.77129 v -0.0993 c 0,-5.38375 3.793751,-9.67198 9.085578,-9.67198 3.195066,0 5.49152,1.39579 7.987665,3.48947 L 28.654965,5.08426 C 25.759437,2.19299 22.264445,0.20056 16.273696,0.20056 Z m 40.538957,0.19863 v 31.3059 h 6.887801 V 0.39919 Z m -25.261769,0.0993 v 31.20659 h 0.09946 22.465306 V 25.42326 H 38.540095 V 0.49849 Z m 71.888976,0 v 6.08125 h 16.67347 l -17.1727,20.04107 v 5.08427 H 129 V 25.72313 H 111.72784 L 128.90054,5.684 V 0.49849 Z M 82.971474,14.25774 89.361995,32.90069 92.456825,26.62081 99.046258,33 c 0,0 2.197392,-1.89273 1.798002,-2.39122 -1.996913,-2.19338 -6.589431,-6.38113 -6.589431,-6.38113 l 5.491519,-1.89467 z"/>
</svg>
