<?xml version="1.0" encoding="utf-8"?>
<svg xmlns="http://www.w3.org/2000/svg" width="32px" height="32px" viewBox="0 0 32 32">
  <path fill="#45c2cc" d="M 15.853516,0 C 6.6146296,0 0,7.0469665 0,15.595703 c 0,8.66426 6.6146296,15.595703 15.853516,15.595703 0.570302,0 1.140634,2.9e-4 1.710937,-0.115234 C 16.880091,29.112273 16.196081,27.032258 15.511719,25.068359 10.379004,24.837312 6.84375,20.678735 6.84375,15.595703 v -0.115234 c 0,-5.198556 3.649709,-9.4726565 8.896484,-9.4726565 5.246775,0 9.011719,4.2743895 9.011719,9.3574215 2.281206,1.155235 4.448088,2.309899 6.615235,3.34961 0.22812,-1.039711 0.341796,-2.07943 0.341796,-3.119141 C 31.708984,6.931443 25.092403,0 15.853516,0 Z M 14.828125,13.748047 20.986328,31.884766 23.953125,25.761719 30.226562,32 c 0,0 2.167179,-1.848453 1.710938,-2.310547 -1.824965,-2.079423 -6.273438,-6.238281 -6.273438,-6.238281 l 5.246094,-1.847656 z"/>
</svg>
