<?xml version="1.0" encoding="utf-8"?>
<svg width="958px" height="958px" viewBox="0 0 958 958" xmlns="http://www.w3.org/2000/svg">
  <path fill="#00AEF0" d="M 479.099 957.493 C 214.905 957.493 0.733 743.323 0.733 479.128 C 0.733 214.934 214.905 0.764 479.099 0.764 C 743.292 0.764 957.464 214.934 957.464 479.128 C 957.464 743.323 743.292 957.493 479.099 957.493 Z M 479.171 651.541 C 384.098 651.541 306.751 574.19 306.751 479.112 C 306.751 384.038 384.098 306.689 479.171 306.689 C 574.244 306.689 651.6 384.038 651.6 479.112 C 651.6 480.186 651.458 481.226 651.438 482.296 L 764.425 528.325 C 767.179 512.318 768.695 495.894 768.695 479.112 C 768.695 319.468 638.818 189.593 479.171 189.593 C 319.532 189.593 189.656 319.468 189.656 479.112 C 189.656 638.756 319.532 768.636 479.171 768.636 C 495.733 768.636 511.951 767.163 527.764 764.478 L 481.703 651.413 C 480.852 651.426 480.026 651.541 479.171 651.541 M 657.421 627.402 L 758.508 593.575 L 479.175 479.785 L 592.966 759.115 L 626.796 658.029 L 721.307 752.54 L 751.929 721.928 Z" />
</svg>
