<?xml version="1.0" encoding="UTF-8" standalone="no"?>
<svg width="29px" height="28px" viewBox="0 0 29 28" version="1.1" xmlns="http://www.w3.org/2000/svg" xmlns:xlink="http://www.w3.org/1999/xlink">
    <!-- Generator: Sketch 39 (31667) - http://www.bohemiancoding.com/sketch -->
    <title>identity-icons-brand</title>
    <desc>Created with Sketch.</desc>
    <defs>
        <path d="M18.5,27.8 L21.1,22.5 L26.6,27.9 C26.6,27.9 28.5,26.3 28.1,25.9 C26.5,24.1 22.6,20.5 22.6,20.5 L27.2,18.9 L13.1,12.1 L18.5,27.8 L18.5,27.8 Z" id="path-1"></path>
        <filter x="-50%" y="-50%" width="200%" height="200%" filterUnits="objectBoundingBox" id="filter-2">
            <feGaussianBlur stdDeviation="4.5" in="SourceAlpha" result="shadowBlurInner1"></feGaussianBlur>
            <feOffset dx="0" dy="6" in="shadowBlurInner1" result="shadowOffsetInner1"></feOffset>
            <feComposite in="shadowOffsetInner1" in2="SourceAlpha" operator="arithmetic" k2="-1" k3="1" result="shadowInnerInner1"></feComposite>
            <feColorMatrix values="0 0 0 0 0   0 0 0 0 0.545098039   0 0 0 0 0.588235294  0 0 0 1 0" type="matrix" in="shadowInnerInner1"></feColorMatrix>
        </filter>
        <path d="M27.9,13.7 C27.9,6.2 22.1,0.2 14,0.2 C5.9,0.2 0.1,6.3 0.1,13.7 C0.1,21.2 5.9,27.2 14,27.2 C14.5,27.2 15,27.2 15.5,27.1 C14.9,25.4 14.3,23.6 13.7,21.9 C9.2,21.7 6.1,18.1 6.1,13.7 L6.1,13.6 C6.1,9.1 9.3,5.4 13.9,5.4 C18.5,5.4 21.8,9.1 21.8,13.5 C23.8,14.5 25.7,15.5 27.6,16.4 C27.8,15.5 27.9,14.6 27.9,13.7 Z" id="path-3"></path>
        <filter x="-50%" y="-50%" width="200%" height="200%" filterUnits="objectBoundingBox" id="filter-4">
            <feGaussianBlur stdDeviation="4.5" in="SourceAlpha" result="shadowBlurInner1"></feGaussianBlur>
            <feOffset dx="0" dy="6" in="shadowBlurInner1" result="shadowOffsetInner1"></feOffset>
            <feComposite in="shadowOffsetInner1" in2="SourceAlpha" operator="arithmetic" k2="-1" k3="1" result="shadowInnerInner1"></feComposite>
            <feColorMatrix values="0 0 0 0 0   0 0 0 0 0.545098039   0 0 0 0 0.588235294  0 0 0 1 0" type="matrix" in="shadowInnerInner1"></feColorMatrix>
        </filter>
    </defs>
    <g id="Page-1" stroke="none" stroke-width="1" fill="none" fill-rule="evenodd">
        <g id="identity-icons-brand">
            <g id="SVGID_5_">
                <use fill="#45C2CC" fill-rule="evenodd" xlink:href="#path-1"></use>
                <use fill="black" fill-opacity="1" filter="url(#filter-2)" xlink:href="#path-1"></use>
            </g>
            <g id="SVGID_1_">
                <use fill="#45C2CC" fill-rule="evenodd" xlink:href="#path-3"></use>
                <use fill="black" fill-opacity="1" filter="url(#filter-4)" xlink:href="#path-3"></use>
            </g>
        </g>
    </g>
</svg>