<?xml version="1.0" encoding="UTF-8" standalone="no"?>
<svg xmlns="http://www.w3.org/2000/svg" viewBox="-459 261 40 40">
  <path fill="#cccccc" d="m -439.09961,269.59844 c -6.9,0 -11.90039,5.20156 -11.90039,11.60156 0,6.4 5.00039,11.59961 11.90039,11.59961 0.5,0 0.89883,3.9e-4 1.29883,-0.0996 l -1.5,-4.5 c -3.8,-0.1 -6.5,-3.3 -6.5,-7 v -0.10156 c 0,-3.8 2.80117,-7 6.70117,-7 3.9,0 6.79883,3.2 6.79883,7 1.7,0.8 3.30039,1.60039 4.90039,2.40039 0.2,-0.8 0.19922,-1.49883 0.19922,-2.29883 0,-6.4 -4.99844,-11.60156 -11.89844,-11.60156 z m -0.80078,10.10156 4.69922,13.39844 2.20117,-4.5 4.69922,4.60156 c 0,0 1.60078,-1.40117 1.30078,-1.70117 -1.4,-1.6 -4.70117,-4.59961 -4.70117,-4.59961 l 3.90039,-1.40039 z"/>
</svg>
