<?xml version="1.0" encoding="utf-8"?>
<!-- Generator: Adobe Illustrator 19.0.1, SVG Export Plug-In . SVG Version: 6.00 Build 0)  -->
<svg version="1.1" id="Layer_1" xmlns="http://www.w3.org/2000/svg" xmlns:xlink="http://www.w3.org/1999/xlink" x="0px" y="0px"
	 viewBox="-459 261 40 40" style="enable-background:new -459 261 40 40;" xml:space="preserve">
<style type="text/css">
	.st0{clip-path:url(#SVGID_2_);fill:#CCCCCC;}
	.st1{clip-path:url(#SVGID_4_);fill:#CCCCCC;}
</style>
<g>
	<g>
		<defs>
			<path id="SVGID_1_" d="M-427.5,283.1c0.2-0.8,0.2-1.5,0.2-2.3c0-6.4-5-11.6-11.9-11.6c-6.9,0-11.9,5.2-11.9,11.6
				c0,6.4,5,11.6,11.9,11.6c0.5,0,0.9,0,1.3-0.1c-0.5-1.5-1-3-1.5-4.5c-3.8-0.1-6.5-3.3-6.5-7v-0.1c0-3.8,2.8-7,6.7-7
				c3.9,0,6.8,3.2,6.8,7C-430.7,281.5-429.1,282.3-427.5,283.1"/>
		</defs>
		<clipPath id="SVGID_2_">
			<use xlink:href="#SVGID_1_"  style="overflow:visible;"/>
		</clipPath>
		<rect x="-456" y="264.2" class="st0" width="33.8" height="33.2"/>
	</g>
	<g>
		<defs>
			<path id="SVGID_3_" d="M-435.3,292.7l2.2-4.5l4.7,4.6c0,0,1.6-1.4,1.3-1.7c-1.4-1.6-4.7-4.6-4.7-4.6l3.9-1.4l-12.1-5.8
				L-435.3,292.7"/>
		</defs>
		<clipPath id="SVGID_4_">
			<use xlink:href="#SVGID_3_"  style="overflow:visible;"/>
		</clipPath>
		<rect x="-444.9" y="274.3" class="st1" width="22.9" height="23.5"/>
	</g>
</g>
</svg>
