<?xml version="1.0" encoding="utf-8"?>
<svg viewBox="0 0 500 500" xmlns="http://www.w3.org/2000/svg">
  <circle class="st0" cx="250" cy="250" r="147.898" style="fill: rgb(255, 255, 255);"/>
  <path class="st1" d="M 306.09 210.858 C 286.556 210.858 270.65 186.301 270.65 156.163 C 270.65 126.025 286.556 101.469 306.09 101.469 C 325.624 101.469 341.53 126.025 341.53 156.163 C 341.251 186.301 325.624 210.858 306.09 210.858 M 250 320.247 C 207.026 320.247 170.749 278.668 159.866 232.624 C 181.074 261.087 213.444 279.226 250 279.226 C 286.556 279.226 318.926 261.087 340.135 232.624 C 329.251 278.668 292.974 320.247 250 320.247 M 194.189 101.19 C 213.723 101.19 229.629 125.746 229.629 155.884 C 229.629 186.022 213.723 210.579 194.189 210.579 C 174.656 210.579 158.75 186.022 158.75 155.884 C 158.75 125.746 174.656 101.19 194.189 101.19 M 455.942 412.335 C 435.292 365.454 431.664 325.828 431.106 310.201 L 431.106 181.836 C 431.106 83.888 350.18 4.358 250 4.358 C 150.099 4.358 68.894 83.888 68.894 181.836 L 68.894 312.154 C 68.057 328.898 64.15 367.407 44.059 412.335 C 17.269 472.889 39.315 465.634 59.406 460.611 C 79.219 455.588 123.589 436.333 137.262 460.053 C 151.215 484.051 162.656 504.701 194.748 491.307 C 227.118 477.633 242.187 473.168 246.931 473.168 L 253.07 473.168 C 257.535 473.168 272.883 477.633 305.253 491.307 C 337.623 504.98 349.064 484.051 362.738 460.053 C 376.691 436.054 420.781 455.588 440.594 460.611 C 460.686 465.634 482.731 472.889 455.942 412.335" style="fill: rgb(0, 174, 240);"/>
</svg>