<?xml version="1.0" encoding="utf-8"?>
<svg width="958px" height="958px" viewBox="0 0 958 958" xmlns="http://www.w3.org/2000/svg">
  <circle class="st0" cx="479" cy="479" r="274.635" style="fill: rgb(255, 255, 255);"/>
  <path class="st1" d="M 583.155 406.315 C 546.882 406.315 517.345 360.714 517.345 304.75 C 517.345 248.787 546.882 203.189 583.155 203.189 C 619.428 203.189 648.964 248.787 648.964 304.75 C 648.446 360.714 619.428 406.315 583.155 406.315 M 479 609.443 C 399.2 609.443 331.836 532.233 311.627 446.732 C 351.009 499.586 411.117 533.271 479 533.271 C 546.882 533.271 606.99 499.586 646.374 446.732 C 626.163 532.233 558.8 609.443 479 609.443 M 375.363 202.67 C 411.636 202.67 441.172 248.268 441.172 304.232 C 441.172 360.195 411.636 405.797 375.363 405.797 C 339.091 405.797 309.555 360.195 309.555 304.232 C 309.555 248.268 339.091 202.67 375.363 202.67 M 861.419 780.442 C 823.073 693.388 816.336 619.807 815.298 590.789 L 815.298 352.425 C 815.298 170.543 665.025 22.861 479 22.861 C 293.491 22.861 142.7 170.543 142.7 352.425 L 142.7 594.415 C 141.145 625.508 133.89 697.016 96.583 780.442 C 46.836 892.887 87.773 879.414 125.081 870.087 C 161.872 860.761 244.264 825.007 269.653 869.05 C 295.563 913.613 316.808 951.96 376.401 927.089 C 436.509 901.697 464.492 893.404 473.301 893.404 L 484.7 893.404 C 492.992 893.404 521.491 901.697 581.598 927.089 C 641.709 952.477 662.954 913.613 688.346 869.05 C 714.255 824.487 796.127 860.761 832.918 870.087 C 870.228 879.414 911.162 892.887 861.419 780.442" style="fill: rgb(0, 174, 240);"/>
</svg>