<?xml version="1.0" encoding="utf-8"?>
<svg width="285px" height="285px" viewBox="33.91490173339844 31.575942993164062 285 285" xmlns="http://www.w3.org/2000/svg">
  <path class="st1" d="M 207.566 152.338 C 196.718 152.338 187.884 138.7 187.884 121.962 C 187.884 105.223 196.718 91.585 207.566 91.585 C 218.414 91.585 227.248 105.223 227.248 121.962 C 227.092 138.7 218.414 152.338 207.566 152.338 M 176.415 213.088 C 152.548 213.088 132.401 189.998 126.357 164.425 C 138.135 180.232 156.112 190.308 176.415 190.308 C 196.718 190.308 214.695 180.232 226.474 164.425 C 220.429 189.998 200.283 213.088 176.415 213.088 M 145.418 91.431 C 156.268 91.431 165.101 105.069 165.101 121.806 C 165.101 138.544 156.268 152.182 145.418 152.182 C 134.571 152.182 125.738 138.544 125.738 121.806 C 125.738 105.069 134.571 91.431 145.418 91.431 M 290.789 264.232 C 279.321 238.195 277.305 216.189 276.995 207.51 L 276.995 136.22 C 276.995 81.822 232.052 37.654 176.415 37.654 C 120.933 37.654 75.834 81.822 75.834 136.22 L 75.834 208.595 C 75.369 217.894 73.2 239.28 62.041 264.232 C 47.163 297.861 59.407 293.832 70.566 291.042 C 81.568 288.254 106.21 277.56 113.803 290.731 C 121.553 304.059 127.908 315.529 145.731 308.09 C 163.708 300.496 172.076 298.017 174.71 298.017 L 178.12 298.017 C 180.6 298.017 189.122 300.496 207.1 308.09 C 225.079 315.684 231.431 304.059 239.027 290.731 C 246.775 277.404 271.261 288.254 282.265 291.042 C 293.423 293.832 305.666 297.861 290.789 264.232" style="fill: rgb(0, 174, 240);"/>
</svg>