<?xml version="1.0" encoding="UTF-8" standalone="no"?>
<svg width="24px" height="24px" viewBox="0 0 24 24" version="1.1" xmlns="http://www.w3.org/2000/svg" xmlns:xlink="http://www.w3.org/1999/xlink">
    <!-- Generator: Sketch 3.8.3 (29802) - http://www.bohemiancoding.com/sketch -->
    <title>HTTPS Everywhere Active</title>
    <desc>Created with Sketch.</desc>
    <defs>
        <rect id="path-1" x="8.00097656" y="9.97837" width="8.02563477" height="7.03925953"></rect>
        <mask id="mask-2" maskContentUnits="userSpaceOnUse" maskUnits="objectBoundingBox" x="0" y="0" width="8.02563477" height="7.03925953" fill="white">
            <use xlink:href="#path-1"></use>
        </mask>
        <path d="M9.01098633,10.4183237 L9.01098633,8.20916186 C9.01098633,6.98907545 9.94169479,6 11.0837836,6 L12.9368463,6 C14.0816206,6 15.0096436,6.99155808 15.0096436,8.20916186 L15.0096436,10.4183237" id="path-3"></path>
        <mask id="mask-4" maskContentUnits="userSpaceOnUse" maskUnits="objectBoundingBox" x="0" y="0" width="5.99865723" height="4.41832372" fill="white">
            <use xlink:href="#path-3"></use>
        </mask>
    </defs>
    <g id="Page-1" stroke="none" stroke-width="1" fill="none" fill-rule="evenodd">
        <g id="HTTPS-Everywhere-Active">
            <circle id="Oval-1" fill="#4D9A26" cx="12" cy="12" r="9.71508789"></circle>
            <use id="Rectangle-352-Copy-18" stroke="#FFFFFF" mask="url(#mask-2)" stroke-width="2" xlink:href="#path-1"></use>
            <use id="Rectangle-352-Copy-19" stroke="#FFFFFF" mask="url(#mask-4)" stroke-width="2" xlink:href="#path-3"></use>
            <path d="M0.5,6.5 L0.5,2.49791312 C0.5,1.39449617 1.39826062,0.5 2.49791312,0.5 L6.5,0.5" id="Path-24" stroke="#4D9A26" stroke-width="2"></path>
            <path d="M0.5,23.4893799 L0.5,19.487293 C0.5,18.3838761 1.39826062,17.4893799 2.49791312,17.4893799 L6.5,17.4893799" id="Path-24-Copy-2" stroke="#4D9A26" stroke-width="2" transform="translate(3.500000, 20.489380) scale(1, -1) translate(-3.500000, -20.489380) "></path>
            <path d="M17.5092773,6.5 L17.5092773,2.49791312 C17.5092773,1.39449617 18.407538,0.5 19.5071905,0.5 L23.5092773,0.5" id="Path-24-Copy" stroke="#4D9A26" stroke-width="2" transform="translate(20.509277, 3.500000) rotate(90.000000) translate(-20.509277, -3.500000) "></path>
            <path d="M17.5092773,23.4893799 L17.5092773,19.487293 C17.5092773,18.3838761 18.407538,17.4893799 19.5071905,17.4893799 L23.5092773,17.4893799" id="Path-24-Copy-3" stroke="#4D9A26" stroke-width="2" transform="translate(20.509277, 20.489380) scale(1, -1) rotate(90.000000) translate(-20.509277, -20.489380) "></path>
        </g>
    </g>
</svg>