<svg xmlns="http://www.w3.org/2000/svg" width="24" height="24" viewBox="0 0 24 24" fill="context-fill" fill-opacity="context-fill-opacity">
 <path d="m11.122 4.0202 3.7351 2.4901c0.41571-0.18634 0.87656-0.28998 1.3616-0.28998 1.8404 0 3.3323 1.4919 3.3323 3.3323 0 1.8404-1.4919 3.3323-3.3323 3.3323-0.78476 0-1.506-0.27141-2.0754-0.72534l-3.5575 2.2234c0.10535 0.47654 0.10535 0.97035 0 1.4469l3.5575 2.2234c0.56938-0.45389 1.2907-0.7253 2.0754-0.7253 1.8404 0 3.3323 1.4919 3.3323 3.3323 0 1.8404-1.4919 3.3323-3.3323 3.3323-1.8404 0-3.3323-1.4919-3.3323-3.3323-7e-5 -0.2433 0.02642-0.48588 0.079-0.72343l-3.5575-2.2234c-0.56938 0.45389-1.2907 0.7253-2.0754 0.7253-1.8404 0-3.3323-1.4919-3.3323-3.3323 0-1.8404 1.4919-3.3323 3.3323-3.3323 0.78476 0 1.506 0.27141 2.0754 0.7253l3.5575-2.2234c-0.05159-0.23295-0.079-0.47496-0.079-0.72343 0-0.57741 0.14686-1.1205 0.40526-1.594l-3.4049-2.27c-0.49653 0.33564-1.0952 0.53164-1.7396 0.53164-1.7177 0-3.1102-1.3925-3.1102-3.1102-1e-6 -1.7177 1.3925-3.1102 3.1102-3.1102 1.7177 0 3.1102 1.3925 3.1102 3.1102 0 0.31664-0.04731 0.62222-0.13526 0.91007z"/>
</svg>

